<?xml version="1.0" standalone="no"?>
<!DOCTYPE svg PUBLIC "-//W3C//DTD SVG 20010904//EN"
 "http://www.w3.org/TR/2001/REC-SVG-20010904/DTD/svg10.dtd">
<svg version="1.0" xmlns="http://www.w3.org/2000/svg"
 width="1204.000000pt" height="1600.000000pt" viewBox="0 0 1204.000000 1600.000000"
 preserveAspectRatio="xMidYMid meet">

<g transform="translate(0.000000,1600.000000) scale(0.100000,-0.100000)"
fill="#000000" stroke="none">
<path d="M1055 15361 c-4 -7 -4 -34 0 -61 9 -63 3 -71 -38 -59 -17 5 -108 14
-202 20 -410 26 -740 35 -731 21 7 -12 -16 -17 -61 -13 -20 1 -23 -3 -23 -32
0 -40 14 -47 94 -47 28 0 100 -4 160 -10 173 -15 427 -31 583 -35 149 -4 185
-14 198 -56 4 -11 8 -77 10 -147 2 -89 6 -126 14 -124 7 1 21 -3 33 -9 l21
-11 -7 125 c-3 69 -3 128 2 131 4 2 17 -3 29 -12 21 -16 22 -25 23 -177 3
-362 2 -368 -21 -362 -12 3 -22 0 -25 -9 -15 -51 -13 -49 -31 -31 -23 23 -31
177 -9 177 8 0 18 -5 22 -12 9 -14 22 15 23 50 1 20 -1 21 -19 10 -26 -16 -32
-8 -38 52 -2 27 -7 50 -11 50 -8 0 -3 -1679 7 -2600 9 -768 10 -4882 2 -6620
-3 -624 -2 -1144 1 -1155 5 -16 14 -4 42 56 55 118 193 439 259 604 107 266
120 298 167 430 l46 130 1 183 1 184 64 38 c44 27 76 39 102 40 35 0 37 2 23
15 -8 9 -13 22 -10 29 4 10 -2 14 -18 13 -13 0 -38 3 -56 7 -25 5 -34 3 -39
-10 -9 -23 -84 -104 -97 -104 -14 0 -29 17 -83 95 -41 59 -42 61 -30 101 7 22
40 93 75 156 70 128 80 171 76 296 -2 45 0 83 5 86 4 3 18 -13 30 -35 17 -30
28 -39 44 -37 27 4 35 49 13 71 -24 24 -36 63 -36 121 0 56 11 73 45 73 32 0
46 -16 34 -38 -9 -18 -5 -23 15 -20 20 4 48 -45 44 -76 -2 -18 0 -29 4 -25 4
4 9 36 10 71 2 48 7 65 18 67 87 17 85 17 98 -10 6 -14 18 -26 27 -26 9 0 15
-9 15 -25 0 -38 23 -30 58 20 33 47 62 59 62 25 0 -11 4 -20 9 -20 17 0 2
-121 -19 -150 -11 -15 -20 -40 -20 -54 0 -26 -13 -35 -25 -16 -3 5 -35 18 -71
29 -35 11 -73 25 -84 31 -17 9 -20 8 -20 -10 0 -11 8 -24 18 -27 9 -4 31 -16
47 -28 17 -13 43 -25 58 -29 16 -4 36 -20 46 -37 11 -18 22 -26 25 -20 18 29
91 0 233 -92 45 -29 96 -66 113 -82 l30 -29 0 35 c0 27 -7 38 -33 56 -17 12
-44 26 -58 32 -14 5 -60 32 -102 59 -43 28 -90 56 -107 64 -16 7 -30 19 -30
27 0 8 16 38 35 67 19 29 35 57 35 63 0 6 5 11 10 11 6 0 15 11 20 26 10 24
11 25 33 8 26 -20 77 -119 77 -150 0 -44 46 -58 90 -27 13 9 31 18 40 19 8 1
29 7 45 13 62 21 169 41 178 32 9 -9 -4 -114 -21 -176 -11 -36 -23 -36 -110 7
-48 24 -65 29 -74 20 -15 -15 -4 -26 47 -40 49 -14 104 -47 111 -67 6 -14 -60
-274 -78 -308 -8 -15 -17 -18 -44 -12 -21 3 -34 2 -34 -5 0 -5 9 -10 20 -10
38 0 42 -32 16 -132 -13 -51 -29 -127 -36 -169 -23 -145 -5 -112 38 68 24 100
49 186 56 192 9 7 28 5 65 -10 30 -11 56 -18 59 -15 3 3 -4 8 -14 12 -40 13
-86 40 -93 54 -7 14 59 274 78 310 9 15 15 15 104 4 68 -9 59 11 -12 26 -35 7
-62 19 -66 27 -12 33 55 283 76 283 5 0 9 7 9 15 0 10 10 15 26 15 35 0 71 40
65 73 -4 22 22 47 48 47 29 0 41 -15 41 -51 0 -24 29 -71 40 -64 5 3 12 -4 15
-16 5 -14 12 -18 23 -13 28 12 86 15 101 5 12 -8 11 -13 -10 -30 -13 -11 -29
-20 -35 -21 -42 -1 -83 -122 -66 -195 5 -23 11 -34 15 -25 34 98 41 112 61
120 11 4 25 5 29 1 15 -15 -38 -271 -60 -288 -8 -6 -13 -22 -12 -35 4 -33 -19
-151 -48 -240 -27 -84 -34 -90 -88 -63 l-30 15 33 -27 c18 -16 32 -37 32 -50
0 -21 -31 -130 -51 -182 -6 -13 -8 -25 -6 -28 2 -2 23 43 47 99 23 57 48 110
55 118 7 8 11 20 9 25 -4 9 64 252 94 340 6 17 23 71 38 120 15 50 33 103 41
118 14 27 14 27 42 11 16 -9 36 -30 45 -45 10 -16 24 -29 32 -29 8 0 14 -8 14
-18 0 -19 50 -71 87 -90 12 -7 40 -12 61 -12 32 0 45 6 65 30 14 16 28 43 32
59 7 34 66 91 93 91 40 -1 42 -11 21 -115 -33 -169 -61 -275 -76 -287 -11 -9
-25 -9 -59 0 -68 18 -74 14 -20 -13 27 -13 53 -30 57 -37 4 -7 -14 -76 -39
-153 -44 -131 -49 -140 -72 -139 -25 2 -201 63 -240 84 -12 6 -26 9 -33 7 -16
-5 45 -43 103 -63 120 -43 155 -61 158 -83 2 -12 -19 -79 -46 -149 -28 -70
-57 -153 -66 -184 -20 -70 -29 -72 -143 -27 -43 18 -139 49 -213 70 -74 22
-140 45 -145 53 -9 11 -14 11 -27 2 -13 -10 -15 -20 -9 -41 6 -25 8 -26 14
-11 6 15 14 17 47 12 22 -3 54 -13 72 -21 18 -8 80 -28 138 -45 186 -55 213
-65 223 -80 6 -11 -13 -78 -64 -225 -40 -116 -76 -214 -80 -219 -10 -11 -111
6 -244 39 -49 13 -111 26 -137 30 -82 12 -82 13 -49 145 57 229 73 301 68 306
-6 6 -10 -7 -27 -86 -28 -123 -81 -305 -97 -329 -10 -14 -16 -34 -14 -44 2
-17 -29 -135 -50 -185 -5 -13 -9 -31 -9 -40 1 -9 14 19 30 63 65 176 59 165
90 165 15 0 72 -12 126 -26 55 -15 133 -35 174 -44 91 -22 107 -28 114 -45 2
-7 -8 -53 -23 -102 -41 -127 -58 -188 -76 -273 -23 -104 -31 -120 -57 -120
-13 0 -59 7 -103 15 -124 22 -130 17 -15 -16 58 -17 112 -37 120 -45 12 -12
15 -49 16 -199 1 -176 0 -184 -19 -189 -21 -5 -98 9 -231 44 -103 26 -135 26
-76 -1 86 -39 139 -57 230 -75 57 -12 95 -24 100 -34 4 -8 15 -51 24 -95 9
-44 34 -136 56 -205 22 -69 40 -133 40 -142 0 -25 -46 -23 -133 6 -40 13 -112
36 -162 51 -49 15 -94 30 -100 35 -14 10 -55 19 -55 12 0 -15 70 -68 78 -60 6
6 21 4 39 -5 28 -15 65 -26 223 -67 138 -37 127 -25 173 -180 14 -47 42 -137
61 -200 20 -64 36 -123 36 -132 0 -38 -21 -34 -233 34 -135 44 -167 64 -167
103 0 13 -4 26 -9 29 -5 3 -12 23 -16 43 -4 21 -9 33 -11 28 -3 -6 2 -33 11
-60 13 -45 13 -51 -1 -61 -13 -11 -12 -15 8 -37 15 -16 31 -58 47 -126 13 -55
28 -101 33 -101 5 0 6 10 3 23 -19 86 -25 116 -25 145 0 38 5 38 90 0 25 -11
97 -35 160 -54 63 -19 120 -40 126 -47 6 -6 34 -93 63 -192 63 -214 59 -204
60 -185 1 26 -27 162 -52 253 -26 94 -26 133 2 122 70 -29 148 -46 244 -54
139 -12 244 -37 276 -65 13 -12 32 -39 41 -61 l18 -40 -5 54 c-6 51 -5 54 13
47 35 -14 148 -25 261 -26 l113 0 29 -41 30 -40 6 34 c7 37 28 47 99 47 24 0
27 3 16 10 -8 5 -36 10 -62 10 -57 0 -63 8 -72 100 -8 72 -25 148 -60 260 -29
94 -46 224 -46 360 1 58 -2 140 -6 182 -8 90 2 112 45 101 14 -3 23 -2 19 2
-4 4 -22 10 -40 14 l-33 7 -3 168 c-3 187 1 199 52 192 17 -3 54 -8 81 -11 67
-8 39 11 -30 21 -102 14 -98 6 -93 152 5 127 37 294 64 337 7 11 19 103 29
210 9 105 23 210 31 234 8 25 14 53 14 63 0 9 16 77 36 150 36 134 50 220 58
358 2 41 14 111 26 155 29 101 31 138 8 143 -15 3 -17 -2 -12 -26 3 -16 -1
-50 -10 -76 -9 -26 -22 -88 -28 -138 -10 -72 -17 -92 -31 -97 -17 -6 -17 -8
-3 -20 20 -17 20 -50 2 -138 -20 -91 -85 -316 -94 -323 -4 -3 -7 -18 -8 -35 0
-16 -10 -109 -23 -205 -21 -159 -25 -177 -47 -196 -22 -18 -23 -22 -10 -34 24
-19 20 -114 -8 -196 -15 -44 -26 -108 -31 -172 -7 -97 -8 -102 -31 -108 -14
-4 -75 4 -137 16 -62 12 -159 31 -217 42 -58 11 -109 24 -114 29 -5 4 -9 30
-9 56 l0 48 -9 -35 c-16 -57 -24 -62 -92 -56 -59 6 -51 -3 16 -18 55 -12 57
-22 55 -202 -2 -178 -5 -186 -56 -178 -14 3 -50 9 -80 14 -66 12 -61 12 -61 1
0 -5 24 -14 53 -21 137 -31 139 -33 152 -135 3 -27 17 -113 32 -190 16 -89 23
-157 20 -187 -4 -32 -2 -50 7 -58 8 -6 17 -36 21 -68 12 -97 41 -234 66 -310
15 -48 20 -75 13 -82 -7 -7 -52 -7 -140 0 -174 14 -236 24 -319 49 l-70 21
-44 158 c-25 86 -48 164 -52 172 -14 29 -37 152 -32 170 3 11 12 21 22 23 11
3 9 5 -6 6 -29 1 -31 6 -59 118 -14 53 -43 149 -64 213 -60 175 -59 177 66
160 138 -18 287 -41 307 -46 11 -4 17 0 17 10 0 9 -4 16 -9 16 -39 0 -409 74
-419 84 -8 8 -17 62 -23 142 -11 135 -8 219 8 235 8 8 85 -4 253 -40 96 -21
115 -23 105 -13 -5 6 -82 28 -170 50 -193 49 -195 49 -195 72 0 57 116 435
143 468 14 18 58 11 180 -27 51 -16 158 -48 238 -71 80 -23 156 -50 169 -60
l23 -17 -31 -124 c-36 -147 -48 -218 -35 -204 10 10 40 132 64 253 13 68 31
95 58 88 9 -2 48 -7 86 -10 l70 -5 -85 28 c-76 25 -85 30 -84 52 1 23 55 223
124 464 45 157 89 293 113 345 12 25 22 56 25 70 2 13 14 67 28 120 13 52 24
102 24 110 1 39 15 44 123 41 142 -3 145 14 4 23 -62 4 -113 11 -115 15 -1 4
-16 5 -33 3 -28 -4 -29 -6 -15 -26 12 -20 12 -31 -3 -97 -31 -126 -52 -190
-67 -196 -8 -3 -14 -19 -14 -37 0 -32 -39 -178 -90 -331 -51 -156 -68 -216
-101 -350 -35 -147 -43 -165 -67 -165 -23 0 -300 70 -442 112 -97 29 -115 37
-118 56 -4 29 105 338 153 432 12 25 28 61 35 80 6 19 25 71 41 115 15 44 38
112 49 150 32 109 32 109 132 89 131 -26 164 -28 93 -4 -33 11 -84 25 -113 32
l-54 12 5 35 c10 76 60 247 78 265 17 19 20 19 101 1 46 -10 90 -20 98 -23 10
-3 12 -2 5 5 -10 10 -112 45 -166 57 -25 5 -26 8 -18 48 4 24 13 57 19 73 7
17 29 86 50 155 53 177 71 184 185 65 64 -68 92 -81 195 -92 55 -6 90 -25 90
-50 0 -20 13 -16 29 10 13 19 16 95 5 106 -2 3 -10 -4 -18 -14 -12 -17 -21
-17 -120 -7 -64 6 -117 17 -131 26 -14 9 -43 41 -65 71 -22 30 -52 62 -65 71
-30 19 -31 40 -7 116 21 67 27 75 46 59 11 -9 22 -7 50 10 35 21 41 32 37 77
-1 12 2 22 8 22 5 0 7 10 4 21 -6 20 -3 21 30 15 26 -5 38 -3 44 8 7 12 12 9
25 -14 16 -28 16 -30 -13 -66 -49 -62 -34 -87 30 -54 43 21 66 26 56 11 -3 -5
-1 -12 5 -16 6 -4 13 7 16 24 l6 30 86 -79 c48 -43 88 -77 91 -75 7 7 -44 77
-94 129 -34 35 -44 51 -36 59 8 8 24 -2 59 -36 26 -26 53 -47 60 -47 7 0 12
-6 12 -14 0 -7 6 -18 13 -24 10 -8 12 -6 12 12 -1 12 -5 27 -9 34 -4 7 -2 12
3 12 6 0 11 9 11 20 0 11 5 20 10 20 6 0 10 5 10 11 0 13 38 49 52 49 5 0 16
7 24 15 9 8 32 15 52 15 28 0 50 10 90 40 58 44 62 46 62 26 0 -7 8 -16 18
-19 9 -2 25 -8 35 -12 13 -5 17 -2 17 13 0 12 -4 24 -10 27 -16 10 -12 25 6
25 12 0 14 5 9 18 -12 26 -19 142 -9 142 11 0 11 97 1 127 -6 15 -2 37 11 66
15 35 26 45 48 49 16 3 36 8 44 12 9 4 25 -2 37 -14 13 -11 24 -16 28 -10 3 6
1 10 -6 10 -10 0 -10 3 -1 12 28 28 -3 83 -32 59 -11 -9 -15 -6 -18 14 -4 17
-1 25 9 25 7 0 18 11 23 25 5 14 16 25 25 25 9 0 15 9 15 21 0 25 28 23 44 -4
9 -15 7 -22 -11 -37 -13 -10 -23 -25 -23 -33 0 -9 -3 -17 -7 -20 -5 -2 -3 -2
4 -1 19 5 25 -13 11 -35 -21 -34 -1 -35 52 -2 28 17 55 31 60 31 6 0 15 11 22
24 6 14 20 26 31 28 24 4 36 28 13 28 -8 0 -20 9 -27 21 -8 17 -18 20 -45 17
-28 -3 -34 -1 -34 15 0 14 5 17 20 12 25 -8 91 15 108 37 7 10 20 18 28 18 8
0 18 8 21 18 4 9 11 20 17 24 5 4 10 23 9 42 -1 20 3 36 8 36 5 0 9 8 9 19 0
29 23 42 76 41 27 0 65 1 84 3 19 2 44 0 55 -6 11 -6 29 -12 40 -13 23 -4 100
-31 127 -45 10 -5 18 -18 18 -29 0 -10 5 -22 10 -25 15 -10 12 -23 -7 -28 -17
-4 -17 -5 0 -6 22 -1 25 -61 2 -61 -19 0 -19 -24 -1 -58 8 -15 20 -46 27 -69
7 -24 15 -43 18 -43 4 0 6 -18 6 -40 0 -22 -3 -40 -6 -40 -4 0 -5 -8 -2 -19 2
-10 -1 -45 -8 -77 -27 -134 -21 -182 22 -169 24 8 26 -26 4 -45 -16 -13 -21
-40 -7 -40 15 0 122 117 122 133 0 10 4 17 10 17 5 0 21 18 35 40 14 23 37 45
50 50 14 5 25 13 25 17 0 5 9 14 20 21 18 11 19 10 14 -21 l-5 -32 18 28 c16
24 43 41 28 17 -3 -6 2 -13 11 -17 10 -4 19 -2 21 4 5 14 92 -29 93 -45 0 -7
4 -11 10 -7 5 3 18 0 30 -7 31 -20 26 -108 -7 -108 -11 0 -13 -7 -9 -24 4 -17
1 -28 -10 -34 -11 -6 -13 -11 -5 -16 14 -9 30 1 42 27 5 12 34 60 63 107 40
62 61 86 81 92 34 9 81 0 96 -18 13 -16 75 -19 84 -4 9 15 25 12 32 -7 4 -11
-5 -26 -32 -49 -38 -32 -39 -33 -21 -53 15 -17 27 -19 77 -14 47 4 59 2 59 -9
0 -8 -5 -19 -12 -26 -6 -6 -10 -37 -9 -73 1 -47 -3 -66 -16 -81 -17 -19 -17
-20 0 -33 15 -11 17 -31 16 -171 -1 -91 -6 -164 -11 -171 -7 -9 -7 -17 -1 -25
11 -14 33 -213 33 -300 0 -38 -5 -60 -15 -68 -14 -12 -14 -15 0 -30 8 -9 15
-22 15 -28 0 -7 6 -12 14 -12 17 0 29 27 16 35 -6 4 -10 35 -10 70 0 35 -5
121 -11 190 -8 102 -8 129 3 142 11 13 10 17 -2 25 -13 8 -14 24 -8 86 3 43 7
114 7 160 1 46 6 93 12 104 8 14 8 23 0 31 -16 16 -14 129 4 154 8 11 34 29
57 40 24 11 80 38 125 58 73 35 80 40 70 57 -10 16 -7 24 21 48 31 29 43 60
22 60 -20 0 -9 36 20 68 46 49 113 71 103 32 -9 -35 22 -23 77 30 29 28 58 50
65 50 7 0 18 7 25 15 7 8 16 12 21 9 5 -3 9 4 9 15 0 12 7 21 15 21 8 0 15 4
15 9 0 13 53 28 119 35 59 6 144 43 191 82 37 31 51 77 52 161 0 38 6 71 12
75 6 4 8 10 4 13 -3 3 -18 -5 -33 -19 -28 -26 -42 -30 -68 -21 -11 5 -12 15
-4 56 7 34 13 47 20 40 11 -11 37 28 37 55 0 25 -68 -28 -77 -60 -11 -37 -30
-44 -39 -14 -8 32 -141 126 -271 194 -60 30 -112 60 -118 65 -5 5 -16 9 -24 9
-8 0 -22 6 -30 14 -9 7 -45 28 -81 45 -277 135 -338 178 -359 254 -11 36 -10
50 2 80 16 36 60 67 94 67 37 -1 98 -30 116 -55 10 -14 27 -25 38 -25 10 0 38
-11 61 -25 42 -25 133 -70 173 -86 11 -4 58 -23 105 -42 47 -19 113 -44 148
-56 60 -20 123 -59 207 -126 22 -18 50 -36 62 -39 11 -4 24 -18 27 -31 4 -14
11 -25 16 -25 6 0 10 -7 10 -15 0 -13 7 -15 36 -9 31 6 40 3 53 -15 17 -22 18
-22 59 -5 87 34 88 83 3 217 -31 49 -62 101 -70 115 -22 43 -60 84 -101 111
-115 77 -161 110 -220 157 -36 28 -71 59 -79 68 -8 10 -27 24 -43 32 -16 8
-37 22 -46 29 -127 108 -191 167 -209 195 -32 47 -30 97 6 138 51 57 123 52
193 -13 36 -33 125 -85 145 -85 9 0 13 -3 10 -6 -14 -14 43 -68 93 -90 52 -21
72 -32 135 -72 39 -25 89 -58 113 -73 23 -16 46 -29 51 -29 14 0 181 -171 181
-186 1 -5 18 -22 40 -39 21 -16 51 -50 67 -74 52 -82 73 -90 99 -40 14 27 16
89 20 453 2 231 5 446 6 476 1 30 1 109 0 175 -1 66 -1 156 -1 200 0 44 1 218
1 387 -1 283 -2 310 -20 351 -21 47 -62 83 -127 113 -37 17 -80 19 -545 21
-278 2 -511 5 -518 8 -10 3 -10 10 -2 24 15 28 12 67 -5 81 -8 7 -15 22 -15
35 0 12 -9 30 -20 40 -22 20 -44 80 -35 95 8 13 -18 55 -52 87 -29 28 -29 38
2 88 49 80 75 141 75 178 0 20 -4 37 -10 37 -5 0 -10 -7 -10 -16 0 -41 -27
-100 -66 -143 l-42 -46 -46 23 c-25 13 -59 23 -74 22 -15 -1 -43 -1 -62 -1
l-35 2 40 34 c22 19 43 35 47 35 4 0 29 16 55 36 27 21 63 43 81 51 17 7 32
18 32 23 0 29 -119 -27 -213 -100 -15 -12 -32 -20 -39 -18 -6 2 -20 -4 -30
-14 -20 -20 -38 -24 -38 -8 0 6 13 19 30 28 37 21 38 30 3 34 -27 3 -28 5 -33
73 -4 50 -12 82 -30 112 -14 24 -28 43 -32 43 -12 0 -10 -13 5 -35 33 -50 44
-165 16 -165 -40 0 -129 143 -132 213 -2 40 -1 42 29 45 24 2 35 -3 48 -23 10
-15 20 -24 23 -22 6 7 -28 60 -45 71 -26 16 -79 71 -91 93 -11 22 -38 22 -52
0 -4 -6 -13 -7 -20 -4 -15 7 -130 81 -172 110 -14 10 -32 20 -39 21 -7 1 -20
6 -28 11 -8 5 -30 11 -50 15 -27 4 -36 11 -38 29 -3 20 -8 23 -35 19 -39 -6
-57 -1 -57 18 0 9 -11 14 -29 14 -17 0 -32 4 -36 10 -3 5 -12 7 -19 4 -7 -3
-20 2 -29 10 -24 24 -89 32 -251 32 -110 -1 -150 -4 -153 -13 -7 -19 -35 -16
-58 7 -11 11 -35 32 -52 46 -37 29 -42 44 -15 44 9 0 24 4 32 10 27 17 2 22
-49 10 -43 -10 -53 -9 -77 7 -23 14 -48 18 -133 18 -131 -1 -200 -11 -227 -36
-11 -10 -26 -19 -32 -19 -7 0 -18 -12 -25 -27 -19 -45 -65 -73 -54 -34 4 15 1
18 -12 13 -9 -3 -22 -11 -28 -18 -10 -9 -9 -13 3 -18 25 -10 12 -35 -33 -62
l-43 -25 10 25 c16 44 -27 33 -77 -19 -23 -25 -51 -45 -62 -45 -31 0 -51 11
-51 27 0 10 -6 13 -17 9 -32 -13 -218 -46 -254 -46 -53 0 -99 -18 -92 -37 6
-16 -82 -113 -103 -113 -6 0 -17 -7 -24 -15 -7 -8 -21 -15 -32 -15 -17 0 -19
5 -13 33 4 17 12 38 17 45 8 8 6 12 -5 12 -8 0 -34 -30 -58 -67 -23 -38 -58
-86 -78 -108 -20 -22 -54 -62 -76 -89 -22 -27 -77 -86 -122 -132 -53 -53 -81
-89 -77 -98 3 -8 0 -23 -6 -33 -9 -14 -10 -14 -7 -2 8 26 -28 12 -43 -17 -8
-13 -21 -24 -30 -24 -9 0 -21 -5 -27 -11 -7 -7 -19 -8 -30 -4 -10 4 -38 9 -63
11 -71 5 -73 6 -98 33 l-24 26 6 -25 c18 -73 28 -170 22 -202 -3 -20 -17 -52
-31 -72 -13 -19 -28 -51 -34 -70 -5 -20 -19 -48 -30 -62 -12 -15 -21 -41 -21
-61 0 -18 -11 -59 -24 -91 -15 -34 -22 -68 -19 -84 4 -22 -4 -36 -51 -84 -56
-58 -67 -78 -43 -87 17 -6 -70 -87 -94 -87 -12 0 -29 -16 -46 -44 -15 -25 -35
-47 -44 -49 -16 -4 -40 -40 -55 -79 -3 -10 -10 -18 -15 -18 -5 0 -9 -12 -9
-26 0 -17 -6 -28 -20 -31 -19 -5 -20 -12 -15 -176 4 -118 2 -174 -6 -183 -7
-9 -9 -30 -5 -54 5 -33 1 -50 -26 -101 -34 -65 -109 -136 -138 -131 -9 1 -30
-4 -46 -13 -16 -8 -34 -15 -41 -15 -11 0 -63 -98 -63 -119 0 -5 -18 -24 -40
-41 -30 -24 -44 -44 -55 -84 -19 -63 -18 -220 1 -257 14 -28 18 -105 8 -155
-3 -18 -1 -40 4 -50 7 -14 6 -29 -4 -53 -13 -32 -15 -33 -63 -29 -47 3 -50 1
-45 -18 8 -31 -17 -44 -88 -48 -45 -2 -77 2 -112 16 -32 12 -52 16 -59 9 -7
-7 0 -12 19 -17 16 -4 34 -11 40 -15 6 -5 25 -10 42 -12 17 -2 41 -10 53 -18
l22 -15 -27 -74 c-30 -86 -35 -188 -11 -266 8 -27 15 -51 15 -53 0 -2 -14 -1
-30 1 -24 4 -30 1 -28 -11 2 -9 12 -17 23 -19 50 -7 67 -14 85 -32 16 -16 18
-25 10 -40 -9 -18 -7 -20 17 -21 15 -1 31 -1 34 -1 4 1 9 -17 12 -39 6 -42
-25 -116 -53 -129 -8 -4 -29 -15 -47 -24 -17 -9 -40 -16 -51 -16 -10 0 -33 -7
-51 -16 -37 -19 -61 -13 -61 16 0 25 -5 25 -28 3 -9 -10 -28 -25 -40 -33 -20
-13 -22 -19 -13 -40 7 -17 10 -20 10 -7 1 21 10 22 26 1 10 -14 13 -13 28 10
15 22 25 26 68 26 61 0 132 17 177 42 18 10 36 18 41 18 20 0 16 -67 -8 -144
-32 -99 -36 -106 -65 -106 -24 0 -66 -48 -66 -75 0 -18 6 -17 -102 -20 -68 -3
-95 -8 -122 -24 -30 -19 -65 -20 -67 -2 0 3 -2 888 -4 1966 -3 1078 -7 2012
-9 2075 -3 63 -8 795 -11 1625 -3 831 -8 1622 -10 1758 -5 244 -5 250 17 280
l22 30 1727 -6 c1483 -5 1729 -4 1739 8 6 8 9 18 6 23 -3 5 1 18 9 28 17 22
19 50 6 59 -6 3 -912 8 -2014 11 -1501 5 -2006 3 -2012 -5z m163 -23 c16 -16
15 -38 -1 -38 -14 0 -39 35 -30 44 9 9 18 7 31 -6z m1882 -39 c10 -18 9 -20
-7 -17 -10 2 -19 11 -21 21 -5 24 15 21 28 -4z m-2943 -25 c-3 -3 -12 -4 -19
-1 -8 3 -5 6 6 6 11 1 17 -2 13 -5z m-37 -35 c0 -5 -4 -9 -10 -9 -5 0 -10 7
-10 16 0 8 5 12 10 9 6 -3 10 -10 10 -16z m998 -109 c6 -39 -14 -44 -37 -11
-12 17 -20 35 -16 40 10 17 50 -5 53 -29z m-13 -1771 c8 -45 3 -54 -20 -46
-10 5 -15 20 -15 51 0 58 25 54 35 -5z m3810 -1219 c3 -5 -1 -24 -10 -41 -21
-39 -40 -26 -30 20 6 30 28 41 40 21z m89 -121 c-36 -40 -46 -17 -12 27 19 24
23 26 26 10 2 -9 -4 -26 -14 -37z m106 -8 c0 -13 -26 -32 -33 -24 -8 7 11 33
24 33 5 0 9 -4 9 -9z m40 -31 c-11 -20 -30 -28 -30 -12 0 11 22 32 32 32 5 0
4 -9 -2 -20z m-1150 -114 c0 -2 -7 -6 -15 -10 -8 -3 -15 -1 -15 4 0 6 7 10 15
10 8 0 15 -2 15 -4z m1460 -101 c9 0 15 -9 15 -25 0 -18 -6 -26 -22 -28 -17
-2 -23 2 -23 15 0 10 -3 29 -6 43 -5 21 -4 23 8 10 7 -8 20 -15 28 -15z m-550
-115 c0 -7 -83 -30 -105 -30 -16 0 -1 30 18 36 12 4 28 16 36 27 14 20 14 20
33 -3 10 -12 18 -26 18 -30z m-728 -252 c-7 -7 -12 -8 -12 -2 0 14 12 26 19
19 2 -3 -1 -11 -7 -17z m3 -28 c3 -5 1 -10 -4 -10 -6 0 -11 5 -11 10 0 6 2 10
4 10 3 0 8 -4 11 -10z m-1042 -133 c34 -29 34 -33 -3 -52 -39 -20 -50 -13 -50
36 0 46 14 50 53 16z m3574 -42 c3 -9 3 -19 -1 -22 -8 -9 -56 14 -56 27 0 16
50 12 57 -5z m-3086 -218 c-13 -13 -21 5 -14 33 l6 24 9 -24 c5 -14 5 -27 -1
-33z m3277 -159 c-2 -18 -14 -26 -48 -36 -25 -7 -74 -26 -109 -43 -35 -16 -65
-28 -67 -26 -9 8 84 68 130 83 28 9 58 23 66 30 21 20 32 17 28 -8z m-908 -79
c0 -6 7 -9 15 -5 10 4 15 -1 15 -14 0 -11 -7 -20 -15 -20 -8 0 -15 -6 -16 -12
-1 -7 -5 -2 -9 12 -11 36 -11 50 0 50 6 0 10 -5 10 -11z m-37 -39 c-3 -11 -7
-20 -9 -20 -2 0 -4 9 -4 20 0 11 4 20 9 20 5 0 7 -9 4 -20z m-57 -135 c14 -13
10 -15 -32 -15 -44 0 -46 1 -28 15 25 19 42 19 60 0z m1564 -176 c0 -11 -42
-39 -57 -39 -20 0 -16 24 9 55 20 26 22 27 35 9 7 -10 13 -21 13 -25z m-830
-109 c0 -11 -7 -20 -15 -20 -15 0 -21 21 -8 33 12 13 23 7 23 -13z m-2 -73 c4
-46 -20 -76 -44 -57 -10 9 -14 27 -12 57 3 40 5 44 28 41 21 -3 25 -9 28 -41z
m-767 -37 c58 -49 81 -77 113 -144 19 -39 43 -80 53 -91 73 -79 153 -188 153
-207 0 -31 -8 -40 -54 -61 -33 -15 -38 -16 -33 -2 5 12 -1 15 -27 15 -19 0
-36 5 -38 11 -2 6 -29 -5 -62 -25 l-58 -35 -26 25 c-29 26 -44 28 -207 25 -73
-2 -105 1 -119 11 -18 14 -17 16 14 52 18 20 46 44 62 52 22 12 41 40 78 117
26 56 55 131 64 167 9 36 22 70 30 75 7 6 11 16 9 23 -7 19 21 14 48 -8z
m-3291 -75 c0 -13 -4 -27 -10 -30 -5 -3 -10 -17 -10 -30 0 -13 -5 -27 -11 -31
-9 -5 -10 7 -5 45 4 28 9 58 12 66 9 21 24 8 24 -20z m3032 23 c7 -19 -11
-188 -22 -208 -5 -10 -26 -20 -48 -24 -22 -3 -51 -15 -65 -26 -14 -11 -30 -20
-35 -20 -5 0 -12 -7 -16 -15 -3 -8 -12 -15 -20 -15 -8 0 -29 -12 -46 -26 -29
-25 -36 -26 -100 -21 -38 3 -79 11 -92 17 -28 14 -148 140 -148 156 0 6 -6 17
-14 23 -17 14 -30 66 -21 81 5 9 90 -30 149 -68 32 -20 79 -29 114 -21 20 5
45 6 55 3 11 -3 32 5 52 20 19 15 36 25 37 24 2 -2 19 7 38 18 19 12 52 24 74
27 43 7 76 31 76 57 0 28 24 41 32 18z m1028 -17 c5 -11 10 -36 10 -55 0 -29
-4 -36 -19 -36 -22 0 -30 19 -29 73 0 41 20 51 38 18z m-243 -41 c7 0 10 -6 7
-14 -3 -8 2 -17 14 -20 45 -15 90 -196 57 -230 -25 -24 -108 -21 -185 9 -93
36 -203 145 -145 145 7 0 15 7 19 15 3 8 12 15 20 15 17 0 61 23 121 64 24 17
47 25 60 22 11 -3 25 -6 32 -6z m-1504 -34 c13 -13 38 -55 57 -92 19 -37 52
-86 74 -108 23 -23 48 -57 58 -78 9 -20 29 -44 45 -54 63 -39 109 -99 71 -92
-8 2 -14 -10 -16 -29 -2 -18 -7 -33 -12 -33 -10 0 -93 -69 -153 -128 -63 -61
-77 -86 -83 -151 -6 -50 -10 -61 -25 -61 -11 0 -19 -7 -19 -15 0 -8 -6 -12
-14 -9 -9 3 -22 -5 -32 -21 -11 -18 -23 -25 -36 -22 -10 3 -18 1 -18 -4 0 -5
10 -9 22 -9 21 0 21 -1 6 -17 -16 -15 -15 -18 13 -44 19 -17 36 -25 49 -22 21
6 42 -30 44 -77 1 -14 6 -25 12 -25 17 0 46 -34 41 -48 -2 -6 6 -24 19 -39 12
-15 25 -33 28 -40 5 -10 7 -10 12 0 9 19 24 4 24 -24 0 -13 5 -24 10 -24 6 0
10 9 10 20 0 12 7 20 16 20 13 0 11 4 -6 18 -15 12 -24 33 -27 64 -4 36 -15
57 -44 90 -37 41 -46 69 -33 102 7 19 24 11 24 -10 0 -9 14 -29 30 -46 17 -16
30 -36 30 -44 0 -8 10 -14 25 -14 16 0 25 -6 25 -15 0 -20 19 -19 27 1 6 15
-4 39 -43 116 -19 35 -18 52 5 72 16 14 25 15 67 6 26 -6 53 -15 59 -19 5 -4
42 -16 80 -25 39 -9 78 -19 88 -22 9 -3 17 -1 17 5 0 12 31 51 41 51 3 0 4
-12 1 -26 -7 -36 12 -44 80 -37 40 4 58 2 58 -6 0 -6 11 -11 25 -11 14 0 25
-4 25 -10 0 -5 6 -10 13 -10 6 0 18 -4 26 -9 11 -7 10 -14 -6 -37 -11 -16 -23
-39 -27 -51 -4 -12 -18 -31 -32 -42 -13 -10 -24 -26 -24 -35 0 -9 -7 -16 -15
-16 -21 0 -19 -17 5 -30 11 -6 27 -24 35 -40 9 -17 22 -30 31 -30 30 0 46 -29
48 -88 1 -48 4 -57 21 -60 11 -2 26 -11 34 -20 10 -13 15 -14 18 -4 6 14 33
16 33 2 0 -5 -11 -12 -25 -16 -14 -3 -25 -11 -25 -18 0 -6 -12 -22 -25 -35
-25 -23 -44 -26 -165 -20 -36 2 -130 30 -130 40 0 4 -22 15 -49 24 -27 9 -55
23 -61 31 -7 8 -30 14 -51 14 -30 0 -37 3 -33 15 6 14 -5 19 -33 16 -7 -1 -13
3 -13 9 0 5 5 10 12 10 6 0 8 3 5 7 -4 4 -22 -7 -40 -25 -22 -21 -40 -30 -57
-28 -104 13 -131 19 -143 37 -8 10 -17 16 -20 12 -4 -3 -10 8 -13 26 -5 21
-15 36 -30 41 -12 5 -28 19 -34 30 -8 15 -18 20 -31 17 -15 -4 -19 0 -18 16 4
44 -1 55 -31 60 -22 5 -31 14 -36 34 -8 33 -45 71 -63 65 -14 -5 -53 33 -44
42 4 3 -4 17 -17 31 -19 21 -24 37 -25 89 0 46 -6 70 -18 84 -27 30 -20 124 9
124 5 0 16 3 24 8 12 7 12 13 2 35 -7 14 -9 31 -5 38 4 7 9 4 15 -9 5 -13 7
-3 5 29 -1 26 1 47 4 47 14 0 18 30 5 42 -11 12 -26 76 -41 178 -2 14 3 40 11
59 8 18 14 49 14 67 0 34 56 154 72 154 4 0 8 14 8 30 0 20 5 30 15 30 14 0
24 4 75 31 28 15 61 9 83 -15z m1722 -132 c-37 -48 -41 -37 -8 22 20 35 29 44
31 31 2 -10 -8 -34 -23 -53z m-4069 29 c-10 -10 -19 5 -10 18 6 11 8 11 12 0
2 -7 1 -15 -2 -18z m3972 -259 c3 -86 -23 -215 -42 -208 -14 5 -38 70 -39 109
-1 17 -8 36 -15 44 -7 7 -10 21 -7 30 4 9 9 30 12 47 4 22 14 36 37 47 17 9
36 14 41 13 6 -1 11 -38 13 -82z m-898 -85 c19 -5 45 -9 58 -9 32 0 89 -47
113 -92 11 -21 26 -38 34 -38 8 0 15 -4 15 -10 0 -5 -11 -10 -24 -10 -13 0
-27 -7 -30 -16 -4 -10 -12 -14 -22 -10 -9 4 -32 -3 -50 -13 -19 -11 -34 -16
-34 -11 0 5 -14 5 -32 -1 -18 -5 -50 -9 -72 -9 -21 0 -55 -4 -75 -10 -20 -5
-75 -19 -123 -30 -165 -38 -248 -18 -190 46 72 82 122 144 122 153 0 14 90 52
109 46 9 -3 32 3 51 13 36 19 81 19 150 1z m478 -135 c41 -8 44 -38 5 -51 -39
-14 -201 -9 -216 6 -9 10 -7 15 8 24 11 6 30 13 43 14 12 2 32 8 45 13 21 9
47 8 115 -6z m-3778 -74 c0 -5 -5 -10 -11 -10 -5 0 -7 5 -4 10 3 6 8 10 11 10
2 0 4 -4 4 -10z m50 -24 c0 -36 -38 -96 -60 -96 -5 0 -16 13 -24 29 -13 25
-13 31 0 49 8 11 27 23 42 25 15 2 30 5 35 6 4 0 7 -5 7 -13z m-171 -167 c2
-47 -1 -85 -7 -91 -6 -6 -8 -25 -5 -42 3 -22 0 -36 -11 -45 -19 -16 -20 -13
-35 69 -13 73 -8 154 14 186 26 40 39 16 44 -77z m3664 81 c14 -12 28 -16 32
-11 3 6 26 13 51 17 34 5 49 3 63 -10 10 -9 25 -16 35 -16 14 0 16 -8 14 -46
-3 -45 -4 -46 -48 -61 -37 -13 -51 -13 -79 -3 -26 9 -36 10 -39 1 -2 -6 -13
-11 -23 -11 -11 0 -29 -5 -41 -11 -31 -17 -65 -3 -77 32 -10 29 -31 32 -31 5
0 -8 -7 -19 -15 -26 -19 -16 -95 -4 -95 16 0 23 -23 26 -56 9 -28 -15 -30 -14
-56 15 -32 35 -35 52 -12 74 20 20 48 20 64 1 17 -20 36 -19 60 5 23 23 67 26
96 6 18 -13 22 -12 43 10 29 30 79 32 114 4z m-883 -99 c0 -5 3 -16 6 -25 4
-10 1 -16 -7 -16 -8 0 -15 11 -15 25 -1 14 2 25 7 25 5 0 9 -4 9 -9z m-103
-37 c-3 -3 -12 -4 -19 -1 -8 3 -5 6 6 6 11 1 17 -2 13 -5z m1109 -79 c4 -9 14
-13 28 -10 11 3 44 7 72 9 29 2 58 7 65 11 9 6 11 3 6 -8 -4 -10 -2 -17 5 -17
7 0 9 -13 5 -34 -3 -22 -1 -36 6 -39 6 -2 11 -26 11 -56 0 -46 2 -51 13 -35
12 17 13 17 13 -3 0 -12 -4 -24 -9 -28 -9 -5 -61 -157 -61 -177 0 -18 -64
-143 -79 -155 -19 -13 -31 0 -24 27 4 16 -11 29 -31 26 -5 0 -15 12 -22 28
-11 29 -12 30 -88 29 -60 -1 -76 2 -76 13 0 8 5 14 11 14 7 0 8 7 4 18 -11 30
-10 34 8 37 10 2 26 10 35 18 10 8 38 17 63 19 54 6 121 53 138 97 37 96 35
156 -6 148 -14 -3 -27 1 -32 11 -6 11 -20 14 -54 10 -62 -7 -75 3 -46 36 26
30 37 32 45 11z m-3688 -225 c-2 -14 -7 -25 -13 -25 -12 0 -19 60 -10 83 6 14
9 13 16 -8 6 -13 9 -36 7 -50z m612 29 c0 -11 -4 -18 -10 -14 -5 3 -7 12 -3
20 7 21 13 19 13 -6z m-826 -306 c-6 -69 -12 -86 -49 -143 -55 -84 -83 -110
-95 -90 -12 19 -12 27 0 35 6 3 10 36 10 73 0 69 28 168 52 184 9 5 22 -2 39
-22 33 -39 39 -38 32 5 -4 24 -2 35 7 35 9 0 10 -19 4 -77z m-164 -169 c0 -14
-4 -23 -9 -20 -5 3 -7 15 -4 26 7 28 13 25 13 -6z m224 -52 c-7 -76 -10 -82
-35 -82 -21 0 -22 1 -4 20 18 19 17 20 -2 20 -43 0 -45 24 -6 67 21 23 41 39
45 37 4 -3 5 -30 2 -62z m-62 -114 c-7 -7 -12 -8 -12 -2 0 14 12 26 19 19 2
-3 -1 -11 -7 -17z m48 -198 c0 -22 -16 -35 -25 -20 -9 14 4 52 16 45 5 -4 9
-15 9 -25z m87 -132 c1 -24 -4 -49 -9 -55 -6 -7 -7 -32 -4 -57 7 -47 -4 -66
-29 -46 -7 6 -22 10 -32 8 -13 -2 -19 4 -21 24 -3 22 2 30 22 40 27 11 33 24
17 30 -19 6 4 68 29 82 14 8 26 14 26 15 1 1 1 -18 1 -41z m157 -116 c9 -14
-23 -45 -40 -38 -16 6 -15 8 1 26 19 21 31 25 39 12z m2461 -122 c3 -5 1 -10
-4 -10 -6 0 -11 5 -11 10 0 6 2 10 4 10 3 0 8 -4 11 -10z m1962 -64 l23 -19
-32 -19 c-17 -11 -34 -15 -37 -10 -3 5 -18 12 -34 16 -27 6 -27 7 -10 34 31
48 34 47 90 -2z m-322 4 c-4 -14 -13 -33 -22 -42 -11 -12 -13 -27 -9 -52 4
-20 2 -44 -3 -55 -6 -10 -12 -33 -13 -50 l-2 -31 -66 5 c-36 2 -73 5 -82 5
-25 0 -23 48 3 113 32 81 33 82 72 80 26 -2 35 1 31 10 -5 14 48 42 79 42 14
1 17 -4 12 -25z m-4407 5 c1 -8 3 -22 4 -30 1 -11 5 -12 12 -5 21 21 34 9 38
-37 5 -50 -5 -82 -28 -96 -8 -4 -14 -17 -14 -28 0 -11 -25 -45 -55 -76 l-54
-56 -56 28 c-46 24 -59 37 -79 79 l-24 51 5 -47 c7 -58 -7 -78 -51 -78 -32 0
-67 -27 -79 -60 -6 -18 -37 48 -37 79 0 11 -5 32 -11 47 -23 61 20 98 106 93
26 -2 49 1 53 7 4 5 32 18 62 28 30 11 84 41 120 67 69 52 86 58 88 34z m2492
-26 c0 -5 -4 -9 -10 -9 -5 0 -10 7 -10 16 0 8 5 12 10 9 6 -3 10 -10 10 -16z
m-2405 -9 c0 -7 -6 -15 -12 -17 -8 -3 -13 4 -13 17 0 13 5 20 13 18 6 -3 12
-11 12 -18z m4605 -100 c12 -8 11 -10 -7 -10 -12 0 -25 5 -28 10 -8 13 15 13
35 0z m-1026 -105 c-4 -8 -8 -15 -10 -15 -2 0 -4 7 -4 15 0 8 4 15 10 15 5 0
7 -7 4 -15z m14 -77 c-6 -18 -25 -20 -31 -3 -5 10 0 15 14 15 12 0 19 -5 17
-12z m-38 -38 c0 -5 -4 -10 -10 -10 -5 0 -10 5 -10 10 0 6 5 10 10 10 6 0 10
-4 10 -10z m-3482 -51 c-5 -35 -28 -36 -28 -1 0 16 3 32 7 35 11 12 25 -9 21
-34z m-587 -6 c19 -21 34 -45 34 -54 0 -9 -19 -37 -43 -62 -39 -43 -42 -45
-46 -24 -3 12 -4 49 -2 82 5 114 5 113 57 58z m1287 -181 c2 -7 -3 -12 -12
-12 -9 0 -16 7 -16 16 0 17 22 14 28 -4z m58 -30 c-2 -4 4 -19 15 -32 l19 -25
6 23 c5 18 9 20 21 10 14 -11 43 -61 43 -73 0 -3 -11 -5 -25 -5 -16 0 -41 17
-75 52 -27 28 -50 53 -50 55 0 1 12 3 26 3 14 0 23 -4 20 -8z m826 -2835 c36
-9 124 -25 195 -37 186 -31 176 -18 170 -213 -5 -150 -6 -162 -26 -175 l-21
-14 23 -18 c19 -16 23 -31 28 -117 4 -54 7 -160 8 -235 1 -137 1 -138 -21
-138 -22 0 -22 -1 5 -23 31 -25 57 -109 103 -342 25 -124 25 -130 7 -143 -10
-7 -27 -11 -38 -8 -11 2 -67 8 -125 11 -114 7 -198 25 -235 49 -19 13 -28 39
-55 153 -49 216 -51 226 -60 304 -5 41 -14 101 -19 134 -62 349 -68 443 -28
430 31 -9 228 -36 239 -32 12 4 -132 41 -198 50 -69 10 -69 10 -82 188 -7 112
-8 168 -1 182 12 21 12 21 131 -6z"/>
<path d="M4676 9284 c-8 -22 -8 -24 8 -24 15 0 28 24 19 34 -11 10 -21 7 -27
-10z"/>
<path d="M5130 8746 c0 -17 5 -26 16 -26 10 0 14 7 12 22 -5 32 -28 35 -28 4z"/>
<path d="M5150 8656 c0 -9 -7 -16 -15 -16 -8 0 -15 -5 -15 -11 0 -6 6 -8 13
-5 6 3 20 9 30 12 19 7 18 25 -1 32 -7 2 -12 -3 -12 -12z"/>
<path d="M4008 3703 c6 -2 18 -2 25 0 6 3 1 5 -13 5 -14 0 -19 -2 -12 -5z"/>
<path d="M5215 15361 c-44 -3 -85 -10 -92 -14 -8 -5 -12 -29 -11 -62 l2 -55
340 -1 c3653 -6 4837 -10 4863 -14 25 -5 34 -12 39 -32 4 -15 4 -128 1 -252
-8 -287 -34 -1109 -47 -1486 -24 -689 -31 -908 -45 -1385 -8 -278 -20 -665
-25 -860 -6 -195 -14 -499 -20 -675 -5 -176 -12 -419 -15 -540 -3 -121 -7
-290 -10 -375 -3 -85 -7 -240 -10 -345 -3 -104 -7 -253 -10 -330 -3 -77 -7
-268 -10 -425 -3 -157 -8 -301 -10 -320 -3 -19 -9 -226 -15 -460 -6 -234 -14
-549 -20 -700 -5 -151 -12 -381 -15 -510 -3 -129 -8 -296 -10 -370 -2 -74 -7
-270 -10 -435 -9 -456 -15 -765 -20 -925 -2 -80 -9 -365 -15 -635 -6 -269 -12
-530 -15 -580 -2 -49 -6 -223 -10 -385 -9 -456 -25 -1045 -40 -1445 -3 -71 -7
-231 -10 -355 -3 -124 -8 -292 -10 -375 -2 -82 -6 -274 -10 -425 -3 -151 -8
-346 -11 -432 l-6 -158 180 0 181 0 5 52 c3 29 8 123 11 208 3 85 7 182 10
215 4 56 7 159 20 758 3 127 7 297 10 377 3 80 7 244 10 365 6 246 22 808 30
1045 3 85 7 265 10 400 3 135 7 335 10 445 10 373 25 959 30 1180 3 121 8 281
10 355 14 354 31 884 40 1240 4 124 8 277 10 340 4 135 20 704 36 1260 6 217
13 460 15 540 3 80 7 228 9 330 2 102 7 232 9 290 3 58 8 247 11 420 3 173 8
342 10 375 3 33 7 175 10 315 3 140 7 327 10 415 3 88 7 264 10 390 4 214 9
384 20 695 14 374 24 792 29 1170 4 234 8 495 11 580 3 85 7 283 10 440 2 157
7 395 11 530 l7 245 35 33 35 32 628 -2 629 -3 0 68 0 67 -447 0 c-381 1 -693
4 -740 9 -7 0 -13 6 -13 12 0 6 10 9 23 8 29 -3 97 11 97 20 0 4 -16 5 -36 3
-62 -8 -368 30 -380 46 -9 12 -15 12 -44 -3 -32 -16 -34 -16 -46 0 -10 14 -21
16 -54 10 -39 -7 -41 -6 -31 13 6 10 24 25 41 32 16 7 30 17 30 22 0 5 -5 6
-11 2 -16 -9 -1038 -1 -1169 10 -25 2 -51 -1 -57 -6 -9 -7 -17 -7 -25 0 -9 7
-467 11 -1368 13 -2414 6 -2301 6 -2326 -13 -29 -23 -44 -23 -44 2 0 27 -28
26 -32 -1 -2 -12 -14 -29 -27 -38 l-24 -15 6 34 c7 35 7 35 -31 36 -20 0 -73
-2 -117 -5z m3185 -50 c0 -9 -27 -41 -35 -41 -2 0 2 11 8 25 12 25 27 34 27
16z m-2973 -26 c-4 -8 -11 -15 -17 -15 -7 0 -7 6 0 21 13 23 26 19 17 -6z
m5723 -195 c0 -5 -7 -10 -15 -10 -8 0 -15 5 -15 10 0 6 7 10 15 10 8 0 15 -4
15 -10z m580 0 c0 -5 -7 -10 -16 -10 -8 0 -12 5 -9 10 3 6 10 10 16 10 5 0 9
-4 9 -10z"/>
<path d="M11256 15329 c-104 -5 -191 -11 -194 -14 -3 -3 3 -11 13 -19 21 -15
14 -46 -10 -46 -8 0 -15 -6 -15 -13 0 -11 89 -13 488 -11 268 1 490 2 495 3 4
0 7 26 7 56 l0 55 -107 0 c-60 0 -142 -7 -184 -14 -65 -13 -81 -13 -115 -1
-43 16 -96 16 -378 4z"/>
<path d="M4420 12205 c0 -8 2 -15 4 -15 2 0 6 7 10 15 3 8 1 15 -4 15 -6 0
-10 -7 -10 -15z"/>
<path d="M4442 12160 c0 -14 2 -19 5 -12 2 6 2 18 0 25 -3 6 -5 1 -5 -13z"/>
<path d="M1960 8830 c0 -5 -6 -10 -14 -10 -14 0 -32 -18 -24 -25 1 -2 15 -6
31 -10 25 -7 27 -5 27 24 0 17 -4 31 -10 31 -5 0 -10 -4 -10 -10z"/>
<path d="M2004 8814 c-10 -8 -13 -12 -5 -8 7 3 17 0 22 -7 8 -12 10 -12 18 1
19 29 -4 39 -35 14z"/>
<path d="M5191 7814 c0 -11 3 -14 6 -6 3 7 2 16 -1 19 -3 4 -6 -2 -5 -13z"/>
<path d="M1757 7671 c3 -11 11 -22 19 -25 11 -4 11 0 -2 19 -20 30 -24 31 -17
6z"/>
<path d="M4880 7429 c0 -5 5 -7 10 -4 6 3 10 8 10 11 0 2 -4 4 -10 4 -5 0 -10
-5 -10 -11z"/>
<path d="M7774 7295 c-16 -13 -17 -16 -4 -25 18 -12 21 -12 39 -1 14 9 9 41
-7 41 -4 0 -17 -7 -28 -15z"/>
<path d="M6898 7204 c-51 -27 -24 -83 30 -63 13 5 28 6 33 3 6 -3 21 6 35 21
24 26 24 28 7 41 -24 18 -71 17 -105 -2z"/>
<path d="M5565 7060 c-9 -15 -1 -23 21 -18 15 3 16 4 1 16 -11 9 -17 10 -22 2z"/>
<path d="M7130 7055 c0 -8 5 -15 10 -15 6 0 10 7 10 15 0 8 -4 15 -10 15 -5 0
-10 -7 -10 -15z"/>
<path d="M7510 6845 c7 -8 22 -15 34 -15 21 1 21 1 2 15 -27 21 -53 20 -36 0z"/>
<path d="M7634 6830 c-12 -5 -24 -21 -28 -35 -7 -26 -61 -128 -100 -187 -11
-17 -14 -28 -7 -28 6 0 16 11 21 24 5 13 14 27 20 31 6 3 24 33 40 65 16 32
34 61 40 65 11 7 43 65 38 70 -2 1 -13 -1 -24 -5z"/>
<path d="M1747 6723 c-5 -13 -15 -23 -22 -23 -24 0 -34 -31 -18 -56 13 -20 13
-29 0 -76 -30 -107 -30 -106 -13 -73 8 17 25 56 36 88 19 52 24 57 51 57 35 0
38 17 5 26 -20 5 -26 13 -28 42 -3 32 -4 34 -11 15z"/>
<path d="M4072 6685 c-11 -31 -16 -57 -12 -60 5 -3 13 7 18 22 l10 28 11 -28
c9 -23 13 -26 25 -15 12 11 12 14 0 21 -8 4 -14 23 -14 42 0 54 -16 49 -38
-10z"/>
<path d="M7294 6727 c-12 -6 -39 -22 -60 -34 -22 -12 -32 -22 -24 -22 8 0 23
6 33 14 10 7 41 19 68 25 27 7 49 16 49 21 0 13 -41 11 -66 -4z"/>
<path d="M8795 6703 c-16 -3 -34 -8 -40 -12 -5 -4 -34 -7 -62 -7 -29 1 -53 -2
-53 -6 0 -3 -21 -11 -47 -18 -27 -6 -75 -18 -108 -25 -152 -37 -379 -57 -401
-36 -5 5 -25 12 -44 16 -54 10 -84 -18 -75 -69 4 -20 19 -48 33 -61 24 -22 30
-23 136 -18 61 3 138 9 171 13 50 6 88 6 220 -2 9 0 109 12 222 28 38 5 163
123 163 153 0 50 -19 58 -115 44z"/>
<path d="M7815 6563 c-11 -3 -22 -8 -25 -12 -3 -4 -38 -19 -78 -35 -77 -30
-118 -59 -91 -64 20 -4 62 16 131 61 31 20 61 37 67 37 5 0 13 5 16 10 3 6 5
9 3 9 -2 -1 -12 -4 -23 -6z"/>
<path d="M4175 6520 c-4 -6 -10 -8 -15 -5 -4 3 -6 -4 -3 -15 5 -20 6 -20 24 1
11 12 19 24 19 26 0 7 -19 2 -25 -7z"/>
<path d="M4495 6522 c-15 -10 -75 -107 -75 -120 0 -24 29 -11 49 21 11 18 31
43 45 56 14 14 26 30 26 38 0 14 -28 17 -45 5z"/>
<path d="M5696 6412 c-3 -5 -10 -69 -16 -143 -8 -98 -15 -137 -26 -146 -13 -9
-13 -15 -3 -34 8 -16 10 -54 6 -122 -3 -54 -4 -97 -2 -95 2 2 9 41 15 87 6 46
18 94 26 106 11 16 12 25 4 30 -7 4 -9 26 -5 58 11 100 25 242 25 255 0 14
-16 16 -24 4z"/>
<path d="M1647 6387 c-8 -12 -20 -47 -26 -77 -15 -73 -19 -77 -71 -83 -25 -3
-47 -7 -50 -7 -3 -1 15 -7 40 -15 25 -7 55 -16 67 -20 15 -5 24 -3 27 6 6 23
34 214 31 217 -1 1 -9 -8 -18 -21z"/>
<path d="M2925 6390 c3 -5 16 -15 28 -21 22 -12 22 -12 3 10 -19 21 -43 30
-31 11z"/>
<path d="M4861 6356 c-15 -18 -10 -128 5 -133 7 -2 14 14 17 39 4 24 9 58 13
76 5 25 3 32 -9 32 -8 0 -20 -6 -26 -14z"/>
<path d="M3108 6313 c7 -3 16 -2 19 1 4 3 -2 6 -13 5 -11 0 -14 -3 -6 -6z"/>
<path d="M3158 6293 c7 -3 16 -2 19 1 4 3 -2 6 -13 5 -11 0 -14 -3 -6 -6z"/>
<path d="M4132 6284 c-1 -12 -5 -37 -8 -55 -4 -28 -3 -31 6 -16 6 9 9 34 7 55
-2 20 -4 27 -5 16z"/>
<path d="M4546 6278 c-9 -12 -16 -29 -16 -38 0 -9 -7 -26 -16 -39 -17 -24 -34
-25 -104 -5 -22 7 -24 6 -11 -9 7 -9 24 -17 37 -17 78 0 100 -59 62 -166 -14
-39 -19 -67 -13 -80 6 -14 12 1 26 61 31 130 39 153 54 169 8 8 11 17 6 20 -5
4 -4 27 4 58 8 28 12 55 9 60 -9 14 -22 9 -38 -14z"/>
<path d="M7028 6284 c-8 -13 -3 -212 5 -220 4 -4 7 15 7 42 0 27 5 68 10 92 8
32 7 49 -3 69 -8 14 -16 22 -19 17z"/>
<path d="M1710 6249 c0 -5 4 -9 9 -9 5 0 23 -13 41 -30 18 -16 36 -28 41 -25
4 3 45 -13 91 -36 167 -84 328 -190 328 -217 0 -14 -37 -81 -50 -92 -18 -14
-42 -70 -37 -84 10 -26 20 -19 61 47 22 34 49 72 60 85 19 22 56 30 56 13 0
-11 71 -81 83 -81 4 0 7 7 7 16 0 16 -47 64 -63 64 -4 0 -17 9 -29 19 l-20 20
28 46 c16 26 43 66 61 90 17 24 29 46 26 49 -3 3 -1 11 4 18 5 7 7 24 3 38 -6
24 -7 24 -32 -16 -15 -23 -33 -57 -41 -75 -19 -44 -74 -119 -88 -119 -6 0 -43
22 -82 49 -40 27 -108 70 -152 95 -44 26 -87 51 -95 56 -8 6 -24 14 -35 19
-11 5 -28 18 -38 29 -10 11 -26 18 -36 15 -9 -2 -36 2 -59 10 -23 8 -42 11
-42 6z"/>
<path d="M5943 6216 c-13 -6 -25 -16 -28 -23 -3 -9 5 -7 22 4 14 10 47 20 72
24 l46 6 -45 0 c-25 0 -55 -4 -67 -11z"/>
<path d="M6080 6193 c0 -15 74 -56 78 -44 2 6 19 11 37 11 36 0 85 18 85 31 0
5 -12 4 -26 -1 -33 -13 -111 -13 -119 0 -7 12 -55 14 -55 3z"/>
<path d="M5110 6171 c-5 -11 -10 -24 -10 -29 0 -5 -7 -27 -17 -48 -9 -22 -17
-61 -19 -89 -1 -27 -8 -86 -14 -130 -10 -67 -17 -105 -40 -190 -1 -5 -1 -41 0
-80 2 -90 13 -62 35 93 9 62 29 163 45 225 17 61 32 135 33 162 2 28 7 62 11
78 9 32 -8 38 -24 8z"/>
<path d="M7905 6111 c-11 -5 -42 -12 -70 -16 -47 -7 -49 -8 -23 -17 30 -10
128 15 128 33 0 11 -8 11 -35 0z"/>
<path d="M7646 6065 c-21 -7 -46 -21 -55 -30 -15 -16 -14 -16 14 -2 17 8 54
17 83 20 28 3 60 11 70 16 27 16 -65 13 -112 -4z"/>
<path d="M2725 6046 c62 -17 123 -20 109 -6 -6 6 -44 13 -85 15 l-74 4 50 -13z"/>
<path d="M7511 5976 c-7 -8 -25 -19 -41 -25 -24 -8 -31 -7 -40 7 -9 16 -11 15
-25 -3 -17 -21 -30 -63 -23 -70 11 -11 74 24 110 59 21 22 38 41 38 43 0 7 -8
2 -19 -11z"/>
<path d="M7000 5818 c0 -22 17 -41 29 -34 19 12 13 46 -9 46 -11 0 -20 -6 -20
-12z"/>
<path d="M8720 5814 c0 -7 -8 -17 -17 -22 -13 -8 -16 -22 -14 -61 2 -40 -1
-51 -14 -51 -11 0 -15 11 -15 40 0 22 -4 40 -10 40 -5 0 -10 -18 -10 -40 0
-36 -2 -40 -25 -40 -14 0 -25 4 -25 9 0 5 -7 11 -15 15 -11 4 -15 -1 -15 -19
0 -22 4 -25 40 -25 l40 0 0 -50 c0 -49 -1 -50 -30 -50 -23 0 -30 4 -30 20 0
11 -4 20 -10 20 -5 0 -10 -9 -10 -20 0 -11 5 -20 11 -20 7 0 9 -10 7 -24 -4
-20 1 -27 23 -37 37 -15 36 -23 -1 -39 -25 -10 -29 -17 -24 -34 3 -11 13 -28
20 -37 8 -8 14 -19 14 -22 0 -12 -38 -7 -43 6 -3 6 -6 1 -6 -12 l-1 -24 -19
21 c-19 23 -46 29 -56 12 -3 -5 3 -10 13 -10 12 0 22 -9 26 -22 11 -42 7 -58
-14 -58 -11 0 -20 7 -20 15 0 13 -2 14 -14 3 -8 -7 -11 -17 -6 -23 4 -5 10
-25 13 -42 5 -25 3 -33 -8 -33 -11 0 -15 -11 -15 -40 0 -29 -4 -40 -15 -40
-13 0 -13 -5 1 -40 15 -36 15 -44 1 -79 -9 -21 -13 -41 -10 -45 4 -3 -5 -6
-19 -6 -30 0 -42 -23 -28 -50 8 -15 6 -19 -8 -22 -14 -3 -13 -7 11 -28 38 -34
36 -88 -5 -103 -23 -8 -28 1 -18 29 8 21 7 24 -15 24 -19 0 -25 -5 -25 -21 0
-12 -8 -28 -17 -36 -13 -10 -15 -16 -5 -19 19 -8 16 -114 -3 -114 -18 0 -17 4
-17 -129 1 -81 4 -107 16 -120 12 -12 16 -12 16 -2 0 11 3 11 16 0 14 -12 20
-9 40 16 13 16 25 47 27 70 l4 40 1 -42 c1 -24 7 -43 12 -43 6 0 10 -18 10
-40 0 -29 -4 -40 -15 -40 -19 0 -19 -14 -1 -29 8 -7 14 -33 14 -68 0 -33 5
-59 12 -61 15 -5 -7 -32 -27 -32 -11 0 -14 -7 -10 -21 9 -33 -2 -48 -44 -59
-29 -8 -39 -16 -39 -30 0 -24 22 -26 40 -5 7 8 19 15 26 15 8 0 14 -7 14 -15
0 -8 -6 -15 -14 -15 -8 0 -21 -18 -30 -40 -9 -22 -21 -40 -28 -40 -7 0 -4 -6
7 -12 11 -6 21 -12 23 -14 2 -1 -3 -13 -10 -26 -7 -12 -14 -24 -15 -26 -1 -2
-11 1 -22 8 -14 7 -21 7 -21 0 0 -5 7 -10 15 -10 8 0 15 -7 15 -15 0 -8 9 -15
20 -15 11 0 20 -4 20 -10 0 -5 -9 -10 -20 -10 -11 0 -20 -7 -20 -15 0 -8 -5
-15 -11 -15 -7 0 -9 -10 -5 -26 5 -19 1 -30 -16 -45 -22 -18 -22 -20 -5 -33
19 -15 22 -26 8 -26 -5 0 -22 -5 -36 -10 -26 -10 -27 -11 -11 -35 17 -25 14
-45 -5 -45 -6 0 -17 -7 -26 -15 -13 -14 -13 -18 1 -41 9 -13 21 -22 26 -19 6
4 10 -1 10 -9 0 -9 -4 -16 -10 -16 -5 0 -12 -17 -15 -37 -4 -21 -9 -45 -13
-53 -3 -8 -6 -24 -6 -35 -1 -15 -8 -20 -31 -20 -16 -1 -28 -5 -26 -10 1 -6 7
-9 12 -7 18 5 8 -44 -11 -56 -11 -7 -20 -21 -20 -32 0 -24 -19 -109 -30 -130
-4 -8 -6 -39 -4 -68 2 -38 -3 -62 -16 -85 -14 -24 -19 -52 -19 -110 0 -73 -2
-80 -29 -109 -20 -20 -32 -44 -37 -74 -4 -27 -16 -54 -33 -72 -15 -15 -43 -47
-62 -70 -19 -24 -44 -45 -57 -48 -13 -4 -27 -14 -32 -23 -16 -27 -253 -25
-248 2 3 16 -51 39 -99 42 -42 3 -104 31 -104 47 0 4 -9 8 -21 8 -29 0 -59 18
-59 36 0 11 -5 14 -16 10 -9 -4 -23 -1 -30 5 -20 16 -17 2 4 -19 9 -10 27 -30
38 -44 12 -14 27 -27 34 -30 20 -6 -8 -52 -44 -72 -19 -10 -58 -41 -88 -69
-49 -47 -162 -117 -188 -117 -6 0 -34 -25 -63 -55 -28 -30 -60 -55 -69 -55 -9
0 -20 -5 -24 -11 -12 -21 36 2 129 60 51 31 107 64 125 72 17 7 32 17 32 21 0
5 6 8 13 8 6 0 23 9 37 20 14 12 56 42 94 67 37 26 70 53 73 60 10 25 44 12
115 -47 32 -26 159 -61 244 -67 67 -5 98 -1 190 22 229 58 349 157 418 345 20
52 38 113 42 135 4 22 11 49 17 60 6 11 12 33 13 50 2 16 8 39 13 50 4 11 13
31 18 45 5 14 30 68 55 120 83 170 85 175 117 305 5 22 19 67 31 100 31 87 67
312 75 478 3 50 8 200 11 332 3 132 9 242 13 245 3 3 7 104 9 225 1 121 7 254
12 295 5 41 14 136 20 210 6 74 15 146 20 160 10 29 20 345 11 358 -10 16 -61
21 -61 6z m-200 -714 c0 -13 -7 -20 -20 -20 -13 0 -20 7 -20 20 0 13 7 20 20
20 13 0 20 -7 20 -20z m-185 -610 c3 -5 1 -10 -4 -10 -6 0 -11 5 -11 10 0 6 2
10 4 10 3 0 8 -4 11 -10z m61 -597 c-10 -10 -19 5 -10 18 6 11 8 11 12 0 2 -7
1 -15 -2 -18z m-56 -147 c0 -8 -4 -18 -10 -21 -5 -3 -10 3 -10 14 0 12 5 21
10 21 6 0 10 -6 10 -14z m-245 -856 c3 -5 1 -10 -4 -10 -6 0 -11 5 -11 10 0 6
2 10 4 10 3 0 8 -4 11 -10z"/>
<path d="M5783 5769 c-18 -12 -33 -23 -33 -25 0 -7 58 25 65 36 9 14 5 13 -32
-11z"/>
<path d="M6550 5782 c0 -5 9 -17 21 -28 17 -16 22 -16 29 -4 7 10 4 19 -7 28
-19 14 -43 16 -43 4z"/>
<path d="M6142 5773 c-10 -4 -10 -8 -1 -19 15 -18 29 -18 29 0 0 18 -11 25
-28 19z"/>
<path d="M5692 5704 c-15 -10 -32 -13 -51 -9 -36 8 -41 0 -26 -50 l12 -39 6
31 c5 24 15 36 42 49 19 9 38 20 41 25 8 13 1 11 -24 -7z"/>
<path d="M7595 5698 c-162 -39 -198 -49 -227 -63 l-33 -15 48 6 c27 3 74 12
105 21 31 9 66 17 77 18 11 1 40 11 65 23 48 22 33 26 -35 10z"/>
<path d="M5601 5537 c-6 -35 -11 -71 -11 -80 0 -27 -22 -67 -38 -67 -13 0 -12
-3 2 -19 16 -17 17 -28 7 -88 -5 -37 -13 -121 -17 -186 -4 -65 -10 -120 -15
-122 -4 -3 -1 -19 8 -35 11 -23 16 -82 20 -239 l6 -209 -23 -12 c-17 -9 -64
-11 -162 -8 -77 2 -133 1 -126 -2 7 -4 76 -10 153 -13 106 -5 142 -10 151 -21
5 -8 16 -104 23 -213 7 -109 14 -205 16 -213 1 -8 3 82 4 200 1 118 5 221 10
228 6 10 57 15 197 20 297 11 429 9 447 -6 13 -11 17 -11 24 1 10 17 116 34
265 42 109 6 118 5 137 -14 26 -26 37 -26 44 -1 3 13 14 20 29 20 16 1 9 6
-22 17 -36 12 -51 13 -78 3 -50 -18 -384 -5 -395 16 -8 14 -11 14 -25 1 -26
-22 -44 -25 -227 -42 -191 -17 -401 -20 -410 -6 -3 5 -8 106 -12 225 -5 168
-3 219 7 231 8 10 9 19 2 28 -6 8 -7 74 -2 197 5 102 9 187 9 188 1 2 14 16
30 31 30 28 30 28 5 23 l-25 -4 7 96 c4 53 4 96 2 96 -3 0 -11 -28 -17 -63z"/>
<path d="M6163 5560 c0 -25 2 -35 4 -22 2 12 2 32 0 45 -2 12 -4 2 -4 -23z"/>
<path d="M2571 5546 c11 -9 69 -14 69 -6 0 6 -16 10 -37 10 -20 0 -34 -2 -32
-4z"/>
<path d="M7245 5541 c-3 -6 -19 -11 -35 -11 -22 0 -29 -6 -35 -27 -3 -15 -17
-40 -31 -56 -23 -28 -32 -57 -16 -57 20 0 140 145 129 156 -3 3 -8 1 -12 -5z"/>
<path d="M2673 5523 c9 -2 25 -2 35 0 9 3 1 5 -18 5 -19 0 -27 -2 -17 -5z"/>
<path d="M8535 5485 c-11 -22 -23 -42 -27 -45 -3 -3 3 -16 13 -29 28 -34 41
-16 37 55 l-3 59 -20 -40z"/>
<path d="M6150 5485 c-18 -22 6 -71 27 -54 16 14 16 29 -1 52 -12 15 -15 16
-26 2z"/>
<path d="M6582 5482 c-10 -7 -8 -12 7 -26 17 -15 19 -16 25 -1 11 29 -6 43
-32 27z"/>
<path d="M6992 5476 c-17 -9 -20 -14 -10 -24 17 -17 26 -15 38 7 13 25 1 33
-28 17z"/>
<path d="M5703 5445 c-18 -8 -33 -17 -33 -20 0 -3 9 -1 19 5 11 5 29 10 40 10
11 0 23 5 26 10 9 14 -14 12 -52 -5z"/>
<path d="M2357 5373 c-3 -43 -6 -96 -7 -118 0 -22 -5 -56 -10 -75 -12 -51 -25
-142 -22 -164 1 -11 -5 -27 -14 -38 -10 -10 -12 -18 -6 -18 8 0 9 -7 2 -25 -5
-14 -7 -32 -4 -40 4 -8 2 -15 -2 -15 -5 0 -9 -18 -9 -40 -1 -22 3 -40 7 -40
15 0 8 -24 -14 -48 -21 -21 -21 -24 -6 -33 9 -5 15 -17 13 -26 -2 -10 -6 -31
-10 -46 -3 -16 -23 -45 -44 -66 -30 -30 -39 -47 -44 -87 -5 -32 -14 -53 -26
-61 -11 -7 -20 -27 -23 -55 -3 -24 -20 -72 -37 -108 -17 -36 -31 -74 -30 -85
1 -11 -1 -27 -4 -35 -3 -8 -8 -29 -11 -47 -3 -17 -14 -51 -25 -75 -11 -24 -23
-72 -26 -108 -4 -36 -11 -70 -16 -76 -4 -5 -13 -57 -18 -115 -6 -57 -12 -120
-14 -139 -2 -19 -14 -57 -26 -83 -12 -27 -19 -57 -16 -68 4 -12 2 -19 -7 -19
-8 0 -13 -13 -14 -36 0 -24 -8 -42 -21 -53 -11 -9 -23 -28 -27 -43 -3 -15 -19
-42 -35 -60 -16 -19 -31 -44 -33 -57 -2 -17 -10 -25 -25 -26 -30 -2 -41 -14
-23 -25 12 -8 9 -15 -17 -39 -18 -16 -33 -39 -33 -49 0 -11 -7 -22 -15 -26 -8
-3 -15 -14 -15 -24 0 -10 -11 -24 -24 -31 -14 -8 -22 -20 -19 -30 2 -9 -8 -30
-22 -46 -14 -17 -35 -46 -47 -67 -13 -22 -26 -34 -34 -31 -10 4 -14 -4 -14
-26 0 -20 -5 -31 -14 -31 -12 0 -32 -60 -28 -81 1 -4 -8 -15 -18 -24 -11 -10
-20 -26 -20 -35 0 -10 -11 -34 -25 -54 -14 -20 -25 -45 -25 -56 0 -10 -9 -22
-20 -25 -13 -4 -20 -15 -20 -30 0 -19 -4 -23 -17 -18 -16 6 -16 5 -4 -10 11
-14 11 -18 -3 -23 -9 -3 -16 -15 -16 -25 0 -12 -7 -19 -20 -19 -14 0 -20 -7
-20 -22 0 -34 -14 -50 -35 -42 -15 6 -17 4 -12 -10 5 -13 1 -19 -12 -23 -25
-6 -34 -29 -21 -53 14 -26 12 -40 -4 -34 -19 7 -36 -22 -36 -61 0 -8 -5 -15
-11 -15 -13 0 -149 -137 -149 -150 0 -5 -9 -14 -20 -20 -11 -6 -20 -19 -20
-29 0 -10 -7 -24 -15 -31 -9 -7 -25 -33 -36 -57 -11 -23 -25 -43 -32 -43 -7 0
-19 -15 -27 -33 -7 -17 -22 -41 -33 -52 -19 -21 -57 -96 -57 -114 0 -6 -4 -11
-8 -11 -20 0 -90 -78 -103 -114 -13 -37 -37 -68 -106 -142 -18 -19 -33 -39
-33 -45 0 -6 -7 -17 -15 -25 -8 -9 -15 -24 -15 -35 0 -10 -9 -24 -20 -31 -11
-7 -20 -18 -20 -24 0 -6 -7 -17 -15 -24 -8 -7 -15 -21 -15 -32 0 -10 -11 -29
-25 -42 -14 -13 -25 -28 -25 -35 0 -6 -4 -11 -10 -11 -5 0 -10 -9 -10 -20 0
-10 -9 -24 -20 -30 -11 -6 -20 -15 -20 -21 0 -17 -54 -89 -67 -89 -6 0 -13
-12 -15 -27 -2 -16 -8 -28 -13 -28 -17 0 -85 -70 -85 -87 0 -9 -7 -18 -15 -22
-9 -3 -12 -12 -8 -22 5 -13 3 -16 -10 -11 -12 5 -19 -1 -23 -18 -3 -14 -10
-25 -15 -25 -6 0 -5 -8 1 -19 7 -13 7 -22 0 -26 -6 -4 -10 -50 -9 -108 0 -56
3 -95 6 -87 3 8 20 33 37 55 17 22 39 56 49 75 10 19 31 50 47 69 17 18 30 39
30 45 0 7 15 27 32 46 18 20 39 48 45 63 7 15 31 52 53 82 22 30 40 57 40 61
0 4 17 30 38 58 21 28 45 62 52 76 12 23 82 122 116 163 8 9 14 20 14 23 0 4
25 39 55 79 30 41 55 77 55 80 0 4 12 21 26 39 14 17 40 53 57 80 18 28 39 59
47 71 8 12 50 75 94 141 43 65 86 130 95 144 10 14 20 33 24 43 4 10 12 15 18
11 10 -6 7 -757 -5 -1676 l-2 -148 257 0 256 0 6 88 c4 48 7 312 8 587 1 275
3 532 5 570 1 39 3 347 5 685 1 338 5 653 8 700 7 84 8 86 73 185 36 55 74
117 84 138 10 20 21 37 26 37 4 0 8 5 8 12 0 6 23 49 50 95 28 46 50 88 50 93
0 6 4 10 8 10 8 0 72 122 92 175 6 16 20 74 31 130 39 201 50 241 136 500 14
43 72 183 103 250 5 11 34 73 64 138 46 98 57 132 65 205 53 463 42 412 89
412 l37 0 -35 19 -35 18 -5 186 c-3 102 -7 187 -10 189 -3 2 -12 9 -21 16 -15
11 -17 5 -22 -65z m-1127 -3164 c0 -6 -4 -7 -10 -4 -5 3 -10 11 -10 16 0 6 5
7 10 4 6 -3 10 -11 10 -16z m-10 -29 c0 -5 -5 -10 -11 -10 -5 0 -7 5 -4 10 3
6 8 10 11 10 2 0 4 -4 4 -10z m-50 -135 c0 -8 -4 -15 -10 -15 -5 0 -7 7 -4 15
4 8 8 15 10 15 2 0 4 -7 4 -15z"/>
<path d="M5002 5388 c-1 -14 -7 -28 -13 -30 -7 -2 -8 -17 -3 -43 7 -37 8 -38
16 -15 5 13 7 45 5 70 -2 25 -4 33 -5 18z"/>
<path d="M5408 5363 c7 -3 16 -2 19 1 4 3 -2 6 -13 5 -11 0 -14 -3 -6 -6z"/>
<path d="M8400 5334 c0 -30 19 -28 31 4 7 18 5 22 -11 22 -15 0 -20 -7 -20
-26z"/>
<path d="M6607 5323 c-11 -10 -8 -43 3 -43 6 0 10 11 10 25 0 26 -2 29 -13 18z"/>
<path d="M7676 5284 c-26 -19 -42 -34 -35 -34 22 1 102 44 107 58 7 21 -22 12
-72 -24z"/>
<path d="M7112 5270 c0 -14 2 -19 5 -12 2 6 2 18 0 25 -3 6 -5 1 -5 -13z"/>
<path d="M6162 5250 c0 -19 2 -27 5 -17 2 9 2 25 0 35 -3 9 -5 1 -5 -18z"/>
<path d="M6607 5218 c-2 -18 -1 -51 3 -73 7 -35 8 -31 9 33 1 77 -3 92 -12 40z"/>
<path d="M7570 5230 c-8 -5 -40 -17 -70 -26 -92 -27 -378 -143 -416 -169 -20
-14 -45 -25 -54 -25 -10 0 -28 -8 -41 -18 l-22 -19 29 -7 c23 -6 32 -3 43 13
19 29 71 29 71 1 0 -30 16 -24 55 19 19 21 48 41 64 44 16 3 35 12 42 19 8 8
55 34 104 58 50 24 99 48 110 54 11 5 41 20 68 33 26 13 47 25 47 28 0 8 -14
6 -30 -5z"/>
<path d="M6590 5032 c0 -5 6 -22 14 -36 12 -24 15 -25 27 -10 9 11 10 20 2 32
-11 19 -43 29 -43 14z"/>
<path d="M6170 5012 c0 -10 6 -26 13 -36 13 -17 14 -17 20 -2 7 17 -11 56 -25
56 -5 0 -8 -8 -8 -18z"/>
<path d="M4926 5013 c-3 -3 -6 -22 -6 -41 0 -29 2 -33 15 -22 8 7 15 23 15 36
0 24 -12 38 -24 27z"/>
<path d="M5235 4953 c-16 -3 -34 -9 -40 -15 -11 -11 65 -2 100 13 18 7 17 8
-5 7 -14 -1 -38 -3 -55 -5z"/>
<path d="M6195 4900 c3 -30 5 -65 5 -77 0 -13 4 -23 10 -23 10 0 2 88 -12 130
-5 17 -6 7 -3 -30z"/>
<path d="M4921 4865 c-6 -177 -26 -333 -47 -356 -10 -11 -12 -19 -5 -24 15 -8
15 -485 1 -485 -12 0 -13 -32 -1 -45 12 -14 31 -167 31 -252 0 -59 -4 -77 -19
-92 -20 -20 -20 -20 1 -46 20 -25 20 -36 16 -213 -5 -205 -11 -229 -60 -239
l-30 -6 31 -13 c18 -8 32 -22 35 -36 9 -44 18 -223 17 -348 -1 -103 -4 -127
-18 -137 -13 -10 -14 -15 -3 -28 12 -14 49 -113 91 -240 11 -33 22 -97 24
-143 2 -45 8 -88 13 -95 5 -7 18 -30 28 -52 l18 -40 6 50 c3 30 1 60 -6 75 -7
14 -19 69 -28 124 -9 54 -20 104 -24 110 -18 29 -32 86 -32 139 l0 57 73 0
c39 0 163 3 274 7 220 7 233 4 233 -46 1 -34 36 -210 44 -218 3 -4 6 47 6 113
0 65 4 125 9 132 8 14 18 13 156 -18 33 -8 105 -9 213 -5 187 8 202 3 203 -64
0 -20 4 -54 8 -76 8 -35 9 -29 10 41 1 52 6 85 14 92 6 5 35 8 62 6 102 -8
189 -2 251 17 36 11 68 18 73 15 5 -3 11 3 14 14 8 32 167 100 235 100 20 0
22 -4 22 -59 0 -39 10 -88 30 -147 17 -49 32 -97 35 -108 2 -10 7 -21 11 -25
8 -8 -4 67 -22 140 -14 58 -18 166 -8 205 4 15 22 28 52 40 26 10 76 40 111
67 35 27 71 50 80 51 9 2 16 9 16 17 0 8 -6 13 -13 11 -9 -1 -11 5 -6 23 9 35
-7 31 -53 -12 -22 -21 -47 -42 -55 -48 -19 -13 -101 -55 -109 -55 -3 0 -9 48
-12 106 -3 59 -10 109 -15 113 -6 4 -15 51 -21 106 -11 108 -6 125 35 125 13
0 24 4 24 8 0 5 23 18 50 30 51 22 56 32 44 80 -8 30 -38 28 -63 -4 -24 -30
-26 -27 -10 10 6 13 22 27 35 30 24 6 24 8 25 134 1 70 1 132 0 139 -1 6 3 14
7 17 5 3 8 24 6 46 -2 22 1 81 7 132 33 290 39 370 38 524 0 55 5 112 10 127
6 15 11 96 12 182 1 143 -1 157 -20 181 l-21 27 0 -88 c0 -85 -1 -88 -32 -117
-25 -23 -32 -39 -33 -67 0 -33 -3 -37 -35 -43 -19 -4 -65 -10 -102 -14 -38 -3
-68 -9 -68 -12 0 -4 40 -7 89 -7 90 0 132 -14 112 -39 -5 -6 -11 -98 -13 -204
l-5 -193 -33 -34 c-26 -27 -49 -38 -105 -51 -92 -22 -105 -17 -107 38 -1 42
-1 42 -5 7 -6 -54 -31 -70 -126 -84 -143 -21 -256 -28 -271 -16 -9 8 -21 7
-42 -3 -46 -23 -209 -29 -442 -16 -163 9 -221 16 -234 27 -12 11 -21 12 -37 4
-11 -6 -57 -11 -103 -12 -92 0 -83 -12 20 -24 34 -4 72 -15 83 -24 21 -16 21
-20 9 -166 -6 -82 -16 -157 -21 -167 -12 -22 -40 -23 -214 -3 -138 16 -222 19
-212 9 11 -11 176 -43 287 -55 58 -7 111 -17 118 -22 18 -14 6 -385 -14 -406
-11 -12 -28 -12 -106 -3 -51 6 -158 16 -238 22 -80 6 -172 14 -205 18 l-60 7
3 205 c2 113 8 217 13 232 8 19 7 32 -1 48 -16 31 -25 701 -11 790 16 90 22
325 12 445 -8 99 -8 99 -10 30z m2038 -907 c0 -18 -3 -51 -7 -73 -4 -22 -5
-62 -1 -90 8 -63 -7 -104 -53 -138 -39 -30 -133 -73 -169 -79 -29 -4 -29 -1
-9 197 14 135 20 155 51 155 10 0 35 7 56 16 123 54 133 54 132 12z m-255 -61
c7 -11 6 -42 -4 -104 -7 -48 -16 -117 -19 -153 -6 -62 -7 -66 -41 -82 -36 -17
-149 -35 -260 -40 l-65 -3 1 30 c1 17 3 94 4 172 1 89 6 147 13 157 9 12 50
18 171 26 88 5 162 12 164 15 9 8 25 0 36 -18z m-418 -30 c11 -12 6 -118 -11
-265 -12 -107 -9 -106 -322 -98 -238 7 -323 12 -333 22 -9 9 -9 339 0 350 14
16 651 8 666 -9z m649 -288 c10 -31 -14 -147 -43 -204 -14 -27 -31 -71 -38
-97 -13 -51 -23 -61 -123 -134 -57 -41 -118 -70 -128 -60 -6 5 17 153 32 208
8 29 22 85 31 123 23 101 30 114 61 121 15 3 42 12 58 19 17 7 46 16 65 20 19
4 42 11 50 16 23 13 28 11 35 -12z m-290 -105 c-3 -26 -15 -73 -25 -105 -11
-33 -26 -96 -35 -141 -26 -136 -33 -157 -58 -162 -12 -3 -52 -7 -89 -10 -37
-3 -80 -12 -95 -20 -26 -15 -23 -15 57 -10 47 3 95 7 108 10 27 5 28 -10 6
-96 -13 -51 -14 -76 -5 -139 13 -95 34 -164 51 -169 9 -3 11 1 5 14 -14 34
-18 190 -6 261 20 116 26 128 74 143 23 6 47 16 52 20 6 4 27 17 48 29 20 12
53 30 73 41 20 12 37 20 39 18 8 -12 35 -249 35 -314 0 -113 -10 -137 -70
-163 -27 -12 -53 -21 -59 -21 -5 0 -32 -12 -58 -26 -27 -15 -66 -27 -90 -28
-24 0 -43 -5 -43 -10 0 -16 -43 -46 -74 -50 -99 -15 -156 -16 -211 -1 -32 8
-60 17 -63 19 -2 3 1 85 7 183 7 98 12 205 11 238 -3 139 3 191 45 385 19 88
27 100 70 100 28 0 69 7 250 40 22 4 44 8 49 9 4 0 5 -20 1 -45z m-411 -15 c6
-5 1 -53 -13 -121 -24 -116 -38 -253 -44 -413 -6 -160 -20 -330 -28 -346 -5
-11 -27 -18 -61 -22 -29 -3 -89 -11 -133 -17 -113 -17 -325 6 -357 38 -5 5
-12 76 -15 158 -6 163 6 282 32 300 13 10 13 13 1 17 -11 5 -13 39 -9 204 3
109 10 203 15 209 10 14 597 7 612 -7z m-1009 -403 c283 -22 298 -25 306 -56
8 -31 0 -402 -9 -412 -8 -8 -96 -13 -379 -24 -161 -6 -193 -5 -197 7 -10 27
-37 469 -31 490 6 18 13 20 53 16 26 -3 142 -12 257 -21z"/>
<path d="M6215 4719 c4 -24 13 -71 20 -104 l14 -60 -5 65 c-7 94 -13 128 -25
136 -7 4 -8 -8 -4 -37z"/>
<path d="M4178 4593 c7 -3 16 -2 19 1 4 3 -2 6 -13 5 -11 0 -14 -3 -6 -6z"/>
<path d="M2360 4471 c0 -6 5 -13 10 -16 6 -3 10 1 10 9 0 9 -4 16 -10 16 -5 0
-10 -4 -10 -9z"/>
<path d="M2497 4453 c-8 -12 4 -63 14 -63 5 0 10 9 11 20 0 11 1 25 2 32 1 14
-20 22 -27 11z"/>
<path d="M3410 4221 c23 -13 80 -21 80 -12 0 9 -48 21 -79 21 -14 -1 -14 -2
-1 -9z"/>
<path d="M8345 4210 c-14 -16 -16 -23 -7 -32 10 -10 17 -7 33 9 12 11 18 26
15 32 -10 16 -21 14 -41 -9z"/>
<path d="M8307 4173 c-3 -5 -1 -17 4 -28 7 -17 8 -17 8 8 1 27 -4 34 -12 20z"/>
<path d="M2408 4044 c5 -10 29 -25 53 -33 30 -11 49 -26 59 -46 l15 -30 3 28
c2 15 8 27 14 27 6 0 -1 9 -15 20 -14 11 -34 20 -45 20 -11 0 -36 7 -57 15
-34 15 -36 15 -27 -1z"/>
<path d="M4585 3617 c31 -15 256 -35 243 -22 -7 7 -23 9 -128 20 -36 3 -83 8
-105 11 l-40 5 30 -14z"/>
<path d="M7158 3514 c-5 -4 -8 -19 -8 -33 0 -18 3 -22 11 -14 6 6 9 21 7 33
-1 12 -6 18 -10 14z"/>
<path d="M7126 3411 c-3 -5 -8 -54 -11 -110 -4 -81 -3 -101 8 -101 9 0 14 12
14 33 0 17 8 60 17 95 10 34 15 69 12 77 -6 16 -32 20 -40 6z"/>
<path d="M7030 3221 c0 -6 5 -13 10 -16 6 -3 10 1 10 9 0 9 -4 16 -10 16 -5 0
-10 -4 -10 -9z"/>
<path d="M2791 3134 c0 -11 3 -14 6 -6 3 7 2 16 -1 19 -3 4 -6 -2 -5 -13z"/>
<path d="M7050 3120 c0 -12 7 -34 15 -49 8 -16 12 -31 10 -33 -3 -3 4 -13 15
-23 12 -11 21 -32 21 -54 2 -30 3 -27 10 19 11 67 11 75 3 123 -6 34 -9 37
-40 37 -28 0 -34 -4 -34 -20z"/>
<path d="M4500 3120 c14 -4 77 -8 140 -7 103 0 108 1 50 7 -91 11 -222 10
-190 0z"/>
<path d="M2660 3073 c0 -12 28 -38 34 -32 2 2 -5 13 -15 23 -11 11 -19 15 -19
9z"/>
<path d="M7139 2677 c-2 -26 0 -58 6 -70 8 -19 10 -16 13 23 1 25 -1 57 -6 70
-8 22 -10 19 -13 -23z"/>
<path d="M2926 2610 c3 -25 10 -49 15 -55 11 -10 5 22 -13 75 -5 17 -6 11 -2
-20z"/>
<path d="M2700 2575 c0 -17 36 -75 47 -75 8 0 25 -7 39 -16 32 -22 45 -9 13
13 -13 9 -39 32 -57 50 -33 32 -42 38 -42 28z"/>
<path d="M3911 2510 c0 -30 6 -82 14 -115 l15 -60 -6 80 c-2 44 -9 96 -13 115
-8 33 -9 32 -10 -20z"/>
<path d="M2957 2488 c4 -29 2 -39 -11 -44 -14 -5 -13 -10 9 -36 14 -16 25 -37
25 -47 0 -9 6 -25 13 -34 19 -28 13 76 -7 104 -9 13 -16 33 -16 44 0 11 -5 27
-10 35 -6 10 -8 3 -3 -22z"/>
<path d="M4369 2405 c-1 -22 -3 -53 -4 -70 -1 -16 4 -65 13 -108 8 -45 11 -82
6 -86 -5 -5 -43 0 -84 10 -51 13 -112 19 -189 19 -92 0 -118 3 -133 17 -10 9
-18 11 -18 6 0 -18 -68 -22 -138 -9 -37 7 -117 29 -178 49 -62 20 -131 39
-155 43 -24 4 -53 12 -64 17 -11 6 -49 12 -85 13 -36 1 -84 8 -108 17 -32 11
-40 12 -32 2 13 -16 133 -65 159 -65 10 0 25 -10 34 -23 20 -31 63 -335 49
-349 -7 -7 -31 -2 -81 17 -70 26 -166 55 -186 55 -24 0 88 -60 170 -90 50 -18
97 -40 106 -49 18 -18 114 -434 104 -451 -15 -24 -120 4 -222 59 -30 17 -79
35 -110 41 -30 7 -64 21 -75 32 -15 15 -22 17 -34 8 -18 -16 -45 -10 -194 41
-96 34 -127 49 -135 67 -5 12 -18 22 -27 22 -22 0 -22 -4 -3 -33 14 -22 27
-161 39 -409 4 -106 -5 -111 -71 -43 -24 25 -43 39 -43 31 0 -8 27 -42 60 -77
37 -39 60 -71 60 -85 0 -13 5 -26 10 -29 6 -3 10 3 10 15 0 28 24 35 63 17 17
-8 52 -18 77 -21 40 -6 36 -3 -39 28 -46 19 -87 38 -91 43 -4 4 -16 100 -25
213 -18 216 -21 277 -13 286 3 3 32 -7 64 -21 68 -31 171 -65 196 -65 9 0 30
-11 46 -25 32 -27 28 -2 57 -318 8 -87 12 -163 9 -169 -4 -5 -19 -7 -35 -4
-40 8 -36 -7 5 -27 41 -19 38 -9 66 -264 26 -233 26 -231 -5 -245 l-25 -11 22
-11 c25 -13 32 -33 47 -141 16 -110 18 -212 6 -224 -19 -19 -89 -13 -150 14
-16 7 -55 16 -85 20 -49 6 -53 5 -35 -8 11 -7 38 -19 60 -25 22 -6 59 -18 82
-26 23 -8 79 -18 125 -22 82 -7 83 -7 61 12 -20 17 -23 32 -28 139 -3 66 -8
128 -11 138 -3 11 -3 38 0 61 6 41 8 42 39 39 l32 -3 -34 12 c-44 16 -45 22
-65 263 -18 216 -19 226 -8 242 9 14 101 -10 236 -62 50 -19 100 -36 111 -38
62 -9 83 -48 101 -182 4 -27 8 -59 10 -70 17 -86 34 -229 30 -242 -7 -17 -26
-15 -136 11 -119 28 -121 13 -5 -28 129 -46 143 -53 153 -88 6 -18 13 -72 17
-120 7 -84 8 -88 31 -88 25 0 26 11 3 100 -10 38 -12 114 -4 122 3 3 36 -6 73
-19 37 -14 105 -35 152 -48 47 -13 121 -35 165 -48 l80 -24 9 -41 c7 -30 15
-42 28 -42 13 0 18 8 18 29 0 17 4 33 10 36 5 3 49 -3 97 -14 165 -38 279 -51
450 -51 91 0 164 2 162 4 -2 3 -58 9 -123 15 -66 6 -124 15 -129 20 -18 18
-57 318 -57 448 0 51 22 77 58 68 37 -9 324 -7 334 3 4 4 -45 9 -109 9 -109 1
-258 19 -275 33 -4 3 -12 33 -17 65 -5 33 -27 132 -50 220 -41 161 -51 235
-30 235 6 0 2 8 -9 18 -18 14 -23 36 -32 147 -5 72 -17 175 -25 229 -8 55 -15
119 -15 143 l0 45 64 -7 c40 -5 66 -3 70 3 6 10 -33 19 -114 24 l-35 3 -12
100 c-6 55 -19 120 -27 144 -30 83 -27 87 67 96 l82 8 -94 16 -95 16 -18 60
c-9 33 -26 110 -37 170 -14 82 -20 100 -22 70z m-869 -169 c25 -3 90 -18 145
-32 148 -39 217 -54 248 -54 15 0 38 -10 51 -23 19 -19 25 -44 41 -180 14
-118 16 -160 7 -169 -9 -9 -32 -4 -94 16 -46 15 -141 36 -213 47 -204 30 -187
21 -200 104 -4 22 -18 92 -32 156 -24 106 -26 158 -6 146 5 -3 28 -8 53 -11z
m854 -125 c77 -34 89 -62 127 -290 12 -68 11 -75 -6 -87 -10 -8 -27 -14 -38
-14 -10 0 -15 -4 -12 -10 3 -5 17 -10 29 -10 17 0 28 -9 39 -32 29 -64 64
-495 41 -517 -5 -5 -25 -11 -44 -13 l-35 -4 30 -8 c64 -16 66 -19 90 -136 9
-47 23 -112 31 -145 8 -33 18 -82 23 -110 5 -27 12 -62 16 -76 9 -37 -18 -63
-59 -54 -17 3 -85 15 -151 25 -135 21 -204 35 -212 44 -3 3 -9 45 -12 93 -5
79 -8 88 -26 88 -14 0 -19 -6 -18 -20 1 -11 5 -48 9 -82 6 -61 6 -62 -21 -69
-43 -11 -118 3 -201 36 -74 29 -104 39 -204 62 -25 5 -49 14 -54 19 -9 8 -50
279 -62 411 -4 51 -3 82 4 91 9 10 7 17 -7 29 -12 10 -26 47 -36 95 -10 43
-31 127 -47 186 -16 59 -31 129 -31 155 l-2 47 75 -2 c126 -4 241 -23 330 -54
46 -16 85 -29 87 -29 4 0 24 -76 44 -175 11 -55 27 -131 35 -170 8 -38 15 -97
16 -130 0 -33 4 -65 8 -70 5 -6 13 -52 19 -104 6 -51 13 -96 16 -100 4 -3 13
3 21 14 18 24 11 164 -12 233 -8 23 -14 51 -14 60 0 10 -16 99 -35 197 -20 99
-34 189 -33 200 3 19 9 20 149 16 85 -2 149 1 152 6 4 6 -55 15 -141 22 -115
9 -151 15 -164 29 -19 20 -75 338 -64 367 6 17 17 18 158 11 114 -5 162 -11
192 -25z m-1105 -680 c110 -55 179 -82 241 -95 41 -9 76 -16 77 -16 7 0 24
-91 38 -200 9 -69 20 -161 26 -204 7 -52 7 -82 0 -89 -9 -9 -90 16 -143 43 -9
5 -72 25 -139 45 -68 19 -126 38 -130 42 -9 10 -48 299 -56 412 l-6 84 38 -7
c20 -4 45 -11 54 -15z m584 -710 c53 -17 121 -41 152 -56 31 -14 84 -33 118
-42 100 -27 103 -32 111 -185 6 -117 26 -211 41 -196 3 3 -2 82 -12 176 -9 95
-14 175 -10 178 16 16 384 -20 417 -41 5 -3 11 -23 15 -45 4 -22 11 -42 15
-45 5 -3 10 -70 10 -148 1 -78 2 -169 3 -202 l2 -60 -43 -3 c-24 -2 -67 2 -95
8 -29 6 -90 18 -137 26 -116 20 -140 30 -147 66 -6 29 -6 29 -17 6 -6 -13 -21
-24 -33 -26 -37 -5 -157 31 -423 128 -44 16 -45 17 -57 75 -12 64 -43 342 -43
388 0 35 12 35 133 -2z"/>
<path d="M6607 2295 c-9 -20 -18 -61 -18 -93 -2 -104 -8 -114 -64 -130 -28 -7
-63 -18 -80 -23 -61 -19 -195 -34 -213 -23 -10 6 -34 7 -57 3 -26 -5 -61 -2
-100 8 -48 12 -88 14 -200 7 -77 -4 -169 -8 -205 -8 -36 -1 -71 -6 -79 -10 -8
-5 -45 -8 -82 -8 -55 1 -69 -1 -69 -13 0 -15 7 -17 110 -20 30 -1 66 -6 79
-10 22 -7 23 -12 18 -63 -5 -48 9 -144 29 -195 7 -20 -18 -28 -111 -33 -184
-10 -271 -22 -257 -36 10 -10 307 -12 323 -2 16 10 58 -5 68 -24 5 -9 19 -75
30 -147 12 -71 31 -170 42 -219 29 -128 42 -121 -239 -120 -125 1 -240 6 -256
11 -29 9 -37 18 -52 58 l-7 20 -5 -20 c-10 -47 -24 -50 -262 -60 -74 -3 -155
-10 -180 -15 -44 -9 146 -6 327 5 67 4 75 2 103 -21 26 -23 30 -32 30 -78 0
-29 6 -101 14 -162 8 -60 18 -148 22 -195 6 -81 5 -88 -14 -98 -11 -6 -37 -11
-56 -11 -20 0 -36 -5 -36 -11 0 -8 14 -10 44 -6 66 9 75 -6 104 -185 14 -84
27 -197 29 -250 l4 -97 -38 -6 c-21 -4 -45 -8 -53 -10 -8 -1 59 -2 150 -2 113
0 141 2 90 6 l-75 6 -11 35 c-27 83 -70 477 -54 493 9 9 450 19 517 11 74 -8
72 -4 99 -131 9 -43 21 -96 26 -118 5 -22 13 -65 18 -95 5 -30 11 -68 14 -85
11 -53 -17 -62 -303 -106 -36 -5 -67 -12 -70 -14 -8 -9 133 -5 242 6 81 9 111
9 120 0 16 -16 48 -14 61 5 17 22 175 35 400 30 185 -4 191 -4 194 -25 2 -15
11 -21 28 -21 20 0 24 5 24 30 0 23 5 31 23 34 34 7 172 25 277 36 90 9 95 8
117 -12 12 -12 26 -36 29 -55 9 -46 24 -42 17 5 -3 20 -7 39 -9 41 -2 2 1 12
6 21 7 13 31 22 82 30 132 22 173 30 188 41 15 11 -30 9 -217 -7 -71 -7 -71
-6 -86 22 -8 16 -18 49 -22 74 -3 25 -10 59 -15 75 -15 48 -41 266 -35 286 4
10 22 24 41 31 47 17 43 30 -8 26 -40 -3 -44 -1 -59 29 -36 73 -59 78 -59 12
0 -21 -3 -39 -7 -40 -11 -1 -363 -10 -397 -10 -16 0 -33 6 -38 13 -5 8 -11 9
-15 3 -28 -36 -125 -57 -376 -80 -158 -14 -177 -11 -177 26 0 21 -23 106 -43
163 -21 57 -27 18 -14 -89 7 -63 7 -89 -1 -97 -7 -7 -58 -12 -134 -13 -68 -1
-196 -5 -285 -10 l-162 -8 -10 24 c-6 13 -22 101 -36 194 -14 94 -30 198 -35
231 -11 65 -6 94 14 94 7 0 37 -7 67 -16 55 -17 159 -15 327 4 95 12 131 5
143 -27 6 -14 16 -39 24 -56 7 -16 23 -57 35 -90 36 -96 40 -104 33 -60 -3 22
-9 47 -13 55 -4 8 -14 50 -21 92 -18 108 -14 111 143 127 67 6 124 14 127 16
12 13 -12 15 -75 6 -38 -6 -103 -12 -144 -13 l-75 -3 -13 70 c-62 338 -68 381
-59 393 8 10 14 10 31 -1 31 -21 139 -20 248 2 122 24 179 15 220 -32 25 -31
26 -31 21 -6 -8 46 14 52 150 47 68 -3 146 -2 175 3 31 4 64 4 78 -1 18 -7 28
-5 41 9 18 18 61 31 248 73 49 11 107 29 127 39 20 10 43 19 51 19 8 0 27 12
42 26 16 15 43 32 59 40 82 34 256 204 210 204 -22 0 -94 -54 -169 -126 -48
-46 -99 -87 -113 -91 -15 -3 -52 -19 -82 -33 -30 -15 -80 -33 -110 -40 -30 -7
-88 -23 -129 -37 -41 -14 -99 -27 -130 -30 -31 -3 -69 -12 -84 -20 -24 -12
-61 -13 -200 -7 -108 4 -175 11 -179 18 -4 6 -8 43 -8 81 0 39 -7 99 -15 135
-14 69 -9 90 25 90 9 0 66 11 126 24 172 39 173 39 193 -11 23 -58 31 -63 31
-15 0 49 7 54 83 63 32 4 61 10 65 14 13 13 -25 25 -80 25 l-58 0 0 125 c0 69
-4 125 -8 125 -5 0 -16 -16 -25 -35z m-496 -281 c89 -25 88 -23 110 -226 9
-82 9 -110 0 -121 -9 -11 -56 -16 -199 -22 -265 -10 -279 -4 -317 115 -9 30
-23 75 -31 100 -15 47 -18 98 -8 124 7 19 39 25 179 35 174 13 205 12 266 -5z
m849 -1388 c42 -12 46 -16 63 -65 9 -29 21 -80 26 -114 5 -34 20 -93 33 -132
13 -38 25 -89 27 -112 2 -37 -1 -44 -21 -52 -13 -5 -108 -19 -213 -30 -104
-12 -211 -26 -236 -32 -29 -6 -106 -8 -205 -3 -105 4 -195 3 -263 -5 -64 -8
-107 -9 -113 -3 -5 5 -18 90 -28 188 -11 99 -22 203 -26 232 -6 47 -5 52 12
53 10 0 28 3 39 5 30 7 297 25 408 27 70 1 100 -2 106 -11 5 -9 11 -6 19 12 9
20 23 26 89 39 99 19 225 21 283 3z"/>
<path d="M3012 2250 c0 -14 2 -19 5 -12 2 6 2 18 0 25 -3 6 -5 1 -5 -13z"/>
<path d="M2734 2158 c9 -12 16 -31 16 -41 0 -13 5 -17 16 -13 8 3 24 1 35 -4
12 -7 19 -7 19 -1 0 5 -9 12 -20 16 -11 3 -29 19 -40 36 -12 16 -26 29 -31 29
-6 0 -3 -10 5 -22z"/>
<path d="M2874 2066 c21 -14 69 -34 106 -46 56 -18 70 -27 82 -53 l15 -32 8
33 c4 21 2 38 -5 47 -6 7 -15 26 -20 42 -8 26 -8 26 -9 4 -1 -21 -4 -23 -38
-18 -60 8 -133 30 -133 39 0 4 -10 8 -22 8 -19 -1 -17 -4 16 -24z"/>
<path d="M4648 2073 c7 -3 16 -2 19 1 4 3 -2 6 -13 5 -11 0 -14 -3 -6 -6z"/>
<path d="M3082 1895 c0 -16 2 -22 5 -12 2 9 2 23 0 30 -3 6 -5 -1 -5 -18z"/>
<path d="M5078 1679 c-9 -5 -67 -10 -128 -11 -60 -1 -110 -5 -110 -9 0 -14 82
-21 174 -14 79 6 97 5 120 -10 25 -17 26 -17 26 2 0 23 -30 53 -51 53 -8 0
-22 -5 -31 -11z"/>
<path d="M6716 1576 c-9 -47 10 -267 29 -339 11 -43 12 -64 5 -78 -10 -17 -6
-22 26 -35 34 -14 39 -14 49 0 14 18 73 31 197 44 72 8 101 17 168 51 44 22
89 41 99 41 11 0 21 3 23 8 2 4 55 33 118 64 91 45 131 72 190 128 40 38 70
70 65 70 -14 0 -80 -44 -97 -66 -9 -11 -50 -38 -90 -59 -67 -35 -113 -61 -241
-136 -43 -26 -98 -46 -187 -70 -19 -5 -75 -14 -123 -19 -49 -5 -94 -13 -101
-19 -17 -14 -42 -5 -51 17 -4 9 -13 87 -20 172 -19 225 -43 314 -59 226z"/>
<path d="M5181 1434 c0 -21 4 -48 9 -59 6 -13 7 -1 3 35 -7 66 -13 78 -12 24z"/>
<path d="M6387 1293 c-11 -39 0 -159 15 -183 21 -32 41 -95 77 -233 16 -62 34
-124 40 -139 15 -39 33 -36 26 5 -3 17 -10 71 -15 118 -6 48 -19 113 -30 144
-11 32 -20 67 -20 78 0 11 -8 34 -19 51 -10 17 -22 49 -25 71 -15 89 -38 130
-49 88z"/>
<path d="M5201 1254 c0 -11 3 -14 6 -6 3 7 2 16 -1 19 -3 4 -6 -2 -5 -13z"/>
<path d="M4678 1123 c6 -2 18 -2 25 0 6 3 1 5 -13 5 -14 0 -19 -2 -12 -5z"/>
<path d="M7878 1023 c-18 -14 -55 -47 -83 -73 -84 -78 -222 -158 -276 -160
-10 0 -25 19 -38 50 -12 28 -24 50 -26 50 -2 0 -2 -7 1 -15 4 -8 1 -15 -5 -15
-7 0 -9 -15 -5 -44 7 -50 5 -52 -90 -87 -50 -19 -50 -19 -11 -14 132 20 121
21 143 -22 11 -22 28 -46 38 -54 16 -13 17 -11 11 28 -4 23 -9 47 -12 55 -7
22 16 41 109 88 92 47 169 101 249 177 66 62 63 90 -5 36z"/>
<path d="M3050 986 c0 -2 7 -6 15 -10 8 -3 15 -1 15 4 0 6 -7 10 -15 10 -8 0
-15 -2 -15 -4z"/>
<path d="M2808 785 c-4 -17 -4 -64 -2 -105 6 -98 -3 -112 -50 -79 -20 13 -36
27 -36 30 0 4 -7 10 -16 13 -15 6 -15 4 -4 -11 8 -10 35 -39 62 -65 47 -45 48
-47 49 -110 1 -57 1 -224 0 -256 -1 -23 -30 -24 -60 -3 -37 27 -50 27 -26 1
10 -11 24 -20 31 -20 7 0 22 -12 33 -26 16 -21 21 -41 21 -90 0 -36 4 -64 10
-64 6 0 10 18 10 41 0 54 15 82 41 74 30 -10 22 13 -11 30 l-30 16 0 162 c0
89 4 168 9 175 7 12 13 11 37 -1 16 -8 43 -16 59 -18 17 -2 36 -7 43 -13 8 -6
17 -5 24 2 9 9 8 12 -5 12 -10 0 -25 4 -35 9 -9 5 -37 19 -62 31 -25 13 -50
28 -57 34 -6 6 -15 64 -20 136 -5 82 -11 115 -15 95z"/>
<path d="M8095 527 c-6 -7 -30 -36 -54 -64 -24 -29 -73 -74 -108 -100 -35 -25
-61 -48 -59 -50 9 -9 116 60 157 100 43 42 98 127 82 127 -4 -1 -13 -6 -18
-13z"/>
<path d="M3440 350 c0 -5 10 -10 23 -10 18 0 19 2 7 10 -19 13 -30 13 -30 0z"/>
<path d="M7810 293 c-19 -8 -43 -19 -52 -24 -10 -5 -26 -9 -36 -9 -10 0 -27
-7 -38 -15 -18 -13 -17 -14 17 -15 21 0 39 6 42 13 2 7 30 21 61 30 31 10 56
22 56 28 0 12 -8 11 -50 -8z"/>
<path d="M8209 179 c-28 -39 -43 -62 -67 -103 -9 -17 -27 -40 -39 -53 l-22
-23 24 0 c20 0 30 12 55 62 18 35 43 78 56 96 14 18 24 38 22 44 -2 6 -15 -4
-29 -23z"/>
<path d="M2910 106 c0 -2 7 -6 15 -10 8 -3 15 -1 15 4 0 6 -7 10 -15 10 -8 0
-15 -2 -15 -4z"/>
</g>
</svg>
